# Blender 5.0.1
# www.blender.org
mtllib c.mtl
o Cylinder
v 0.000000 -1.000000 -0.522109
v 0.101858 -1.000000 -0.512077
v 0.199802 -1.000000 -0.482366
v 0.290068 -1.000000 -0.434118
v 0.369187 -1.000000 -0.369187
v 0.434118 -1.000000 -0.290068
v 0.482366 -1.000000 -0.199802
v 0.512077 -1.000000 -0.101858
v 0.522109 -1.000000 0.000000
v 0.512077 -1.000000 0.101858
v 0.482366 -1.000000 0.199802
v 0.434118 -1.000000 0.290068
v 0.369187 -1.000000 0.369187
v 0.290068 -1.000000 0.434118
v 0.199802 -1.000000 0.482366
v 0.101858 -1.000000 0.512077
v 0.000000 -1.000000 0.522109
v -0.101858 -1.000000 0.512077
v -0.199802 -1.000000 0.482366
v -0.290068 -1.000000 0.434118
v -0.369187 -1.000000 0.369187
v -0.434118 -1.000000 0.290068
v -0.482366 -1.000000 0.199802
v -0.512077 -1.000000 0.101858
v -0.522109 -1.000000 0.000000
v -0.512077 -1.000000 -0.101858
v -0.482366 -1.000000 -0.199802
v -0.434118 -1.000000 -0.290068
v -0.369187 -1.000000 -0.369187
v -0.290068 -1.000000 -0.434118
v -0.199802 -1.000000 -0.482366
v -0.101858 -1.000000 -0.512077
v -1.169581 5.667782 -1.277568
v 0.000000 6.018261 0.943524
v 1.169581 5.667782 -1.277568
v 0.000000 3.224639 -0.522109
v -1.164224 7.677801 -0.223573
v 1.164224 7.677801 -0.223573
v -1.168560 4.974075 -1.253725
v -1.169581 6.341662 0.954553
v 1.169581 6.341662 0.954553
v 1.168560 4.974076 -1.253725
v -1.166906 4.328417 -1.118649
v -1.168560 6.929707 0.759901
v 1.168560 6.929707 0.759901
v 1.166906 4.328417 -1.118649
v -1.165249 3.794017 -0.885519
v -1.166906 7.374386 0.479374
v 1.166906 7.374386 0.479373
v 1.165249 3.794017 -0.885519
v -1.164224 3.423185 -0.577107
v -1.165249 7.632161 0.140476
v 1.165249 7.632161 0.140475
v 1.164225 3.423185 -0.577107
v 1.396349 5.667782 -1.024844
v -0.897867 5.667781 -1.481194
v -0.184073 6.018261 0.925394
v 1.185471 7.677801 0.007852
v 0.101858 3.224639 -0.512077
v -1.098237 7.677801 -0.446406
v 1.390696 4.974076 -1.001661
v -0.901517 4.974076 -1.457610
v -1.333332 6.341662 0.708037
v 0.960884 6.341662 1.164385
v 1.362722 4.328416 -0.869503
v -0.926246 4.328416 -1.324807
v -1.294356 6.929707 0.517325
v 0.997857 6.929707 0.973275
v 1.315615 3.794018 -0.641177
v -0.970104 3.794018 -1.095834
v -1.238006 7.374386 0.242509
v 1.050963 7.374386 0.697813
v 1.254442 3.423185 -0.338889
v -1.029266 3.423185 -0.793147
v -1.170264 7.632160 -0.089552
v 1.115455 7.632160 0.365106
v 1.569456 5.667782 -0.732739
v -0.591647 5.667781 -1.627899
v -0.361071 6.018261 0.871702
v 1.161160 7.677801 0.238975
v 0.199802 3.224639 -0.482366
v -0.990045 7.677801 -0.652084
v 1.559388 4.974076 -0.711103
v -0.599829 4.974077 -1.605479
v -1.445844 6.341662 0.434312
v 0.715261 6.341662 1.329471
v 1.506169 4.328417 -0.586941
v -0.649992 4.328416 -1.480053
v -1.370410 6.929707 0.254869
v 0.788808 6.929707 1.149246
v 1.415424 3.794017 -0.372192
v -0.737677 3.794017 -1.264034
v -1.261529 7.374386 -0.003672
v 0.894632 7.374386 0.889438
v 1.296452 3.423185 -0.087648
v -0.854753 3.423186 -0.978707
v -1.130307 7.632161 -0.316139
v 1.022792 7.632161 0.575704
v 1.682250 5.667782 -0.412475
v -0.262693 5.667781 -1.712044
v -0.524193 6.018261 0.784512
v 1.092228 7.677801 0.460915
v 0.290068 3.224639 -0.434118
v -0.843806 7.677801 -0.832702
v 1.668155 4.974076 -0.393217
v -0.275090 4.974076 -1.691652
v -1.502792 6.341662 0.143897
v 0.442151 6.341662 1.443466
v 1.591735 4.328417 -0.281824
v -0.348758 4.328418 -1.578421
v -1.393801 6.929707 -0.017382
v 0.549443 6.929707 1.281053
v 1.460838 3.794017 -0.088904
v -0.476901 3.794017 -1.383660
v -1.236572 7.374386 -0.249714
v 0.703921 7.374386 1.046883
v 1.288640 3.423185 0.166962
v -0.647394 3.423185 -1.126655
v -1.046914 7.632161 -0.530577
v 0.890825 7.632161 0.764179
v 1.730396 5.667781 -0.076358
v 0.076357 5.667782 -1.730395
v -0.667172 6.018261 0.667172
v 0.981321 7.677801 0.665141
v 0.369187 3.224639 -0.369187
v -0.665141 7.677801 -0.981320
v 1.712815 4.974076 -0.060221
v 0.060221 4.974076 -1.712814
v -1.501989 6.341662 -0.152048
v 0.152049 6.341662 1.501989
v 1.616133 4.328417 0.034123
v -0.034122 4.328416 -1.616132
v -1.363628 6.929707 -0.288966
v 0.288966 6.929707 1.363628
v 1.450112 3.794017 0.197798
v -0.197799 3.794017 -1.450113
v -1.164095 7.374386 -0.486160
v 0.486159 7.374385 1.164094
v 1.231308 3.423185 0.415154
v -0.415154 3.423185 -1.231308
v -0.923286 7.632161 -0.724625
v 0.724624 7.632161 0.923287
v 1.712044 5.667782 0.262692
v 0.412474 5.667782 -1.682250
v -0.784511 6.018261 0.524194
v 0.832702 7.677801 0.843806
v 0.434118 3.224639 -0.290068
v -0.460915 7.677801 -1.092228
v 1.691652 4.974075 0.275090
v 0.393217 4.974076 -1.668154
v -1.443467 6.341662 -0.442150
v -0.143897 6.341662 1.502792
v 1.578421 4.328417 0.348758
v 0.281825 4.328417 -1.591735
v -1.281052 6.929707 -0.549443
v 0.017382 6.929707 1.393800
v 1.383660 3.794017 0.476901
v 0.088904 3.794017 -1.460837
v -1.046882 7.374386 -0.703921
v 0.249714 7.374386 1.236572
v 1.126655 3.423185 0.647394
v -0.166962 3.423185 -1.288640
v -0.764179 7.632161 -0.890825
v 0.530577 7.632161 1.046913
v 1.627899 5.667782 0.591648
v 0.732738 5.667782 -1.569456
v -0.871702 6.018261 0.361071
v 0.652083 7.677801 0.990046
v 0.482366 3.224639 -0.199802
v -0.238975 7.677801 -1.161161
v 1.605481 4.974076 0.599828
v 0.711103 4.974076 -1.559388
v -1.329470 6.341662 -0.715260
v -0.434311 6.341663 1.445843
v 1.480053 4.328417 0.649992
v 0.586942 4.328418 -1.506169
v -1.149246 6.929706 -0.788808
v -0.254869 6.929706 1.370410
v 1.264035 3.794017 0.737677
v 0.372192 3.794017 -1.415424
v -0.889438 7.374386 -0.894632
v 0.003672 7.374386 1.261529
v 0.978707 3.423185 0.854754
v 0.087648 3.423185 -1.296452
v -0.575704 7.632161 -1.022792
v 0.316139 7.632161 1.130307
v 1.481194 5.667782 0.897867
v 1.024844 5.667782 -1.396349
v -0.925394 6.018261 0.184072
v 0.446406 7.677801 1.098237
v 0.512077 3.224639 -0.101858
v -0.007852 7.677801 -1.185471
v 1.457610 4.974076 0.901517
v 1.001660 4.974076 -1.390696
v -1.164386 6.341662 -0.960884
v -0.708037 6.341662 1.333332
v 1.324808 4.328416 0.926246
v 0.869503 4.328417 -1.362722
v -0.973275 6.929707 -0.997857
v -0.517325 6.929707 1.294356
v 1.095835 3.794018 0.970104
v 0.641177 3.794018 -1.315615
v -0.697813 7.374386 -1.050963
v -0.242509 7.374387 1.238006
v 0.793146 3.423185 1.029266
v 0.338888 3.423185 -1.254442
v -0.365106 7.632160 -1.115454
v 0.089552 7.632160 1.170264
v 1.277568 5.667782 1.169581
v 1.277568 5.667782 -1.169581
v -0.943524 6.018261 0.000000
v 0.223573 7.677801 1.164224
v 0.522109 3.224639 0.000000
v 0.223573 7.677801 -1.164224
v 1.253725 4.974076 1.168560
v 1.253725 4.974075 -1.168560
v -0.954553 6.341662 -1.169581
v -0.954553 6.341662 1.169581
v 1.118649 4.328417 1.166906
v 1.118649 4.328417 -1.166906
v -0.759901 6.929707 -1.168560
v -0.759901 6.929707 1.168560
v 0.885519 3.794017 1.165249
v 0.885519 3.794017 -1.165249
v -0.479374 7.374386 -1.166906
v -0.479373 7.374386 1.166906
v 0.577107 3.423185 1.164225
v 0.577107 3.423185 -1.164224
v -0.140476 7.632161 -1.165249
v -0.140475 7.632161 1.165249
v 1.024844 5.667782 1.396349
v 1.481194 5.667781 -0.897867
v -0.925394 6.018261 -0.184073
v -0.007852 7.677801 1.185471
v 0.512077 3.224639 0.101858
v 0.446406 7.677801 -1.098237
v 1.001661 4.974076 1.390696
v 1.457610 4.974076 -0.901517
v -0.708037 6.341662 -1.333332
v -1.164385 6.341662 0.960884
v 0.869503 4.328416 1.362722
v 1.324807 4.328416 -0.926246
v -0.517325 6.929707 -1.294356
v -0.973275 6.929707 0.997857
v 0.641177 3.794018 1.315615
v 1.095834 3.794018 -0.970104
v -0.242509 7.374386 -1.238006
v -0.697813 7.374386 1.050963
v 0.338889 3.423185 1.254442
v 0.793147 3.423185 -1.029266
v 0.089552 7.632160 -1.170264
v -0.365106 7.632160 1.115455
v 0.732739 5.667782 1.569456
v 1.627899 5.667781 -0.591647
v -0.871702 6.018261 -0.361071
v -0.238975 7.677801 1.161160
v 0.482366 3.224639 0.199802
v 0.652084 7.677801 -0.990045
v 0.711103 4.974076 1.559388
v 1.605479 4.974077 -0.599829
v -0.434312 6.341662 -1.445844
v -1.329471 6.341662 0.715261
v 0.586941 4.328417 1.506169
v 1.480053 4.328416 -0.649992
v -0.254869 6.929707 -1.370410
v -1.149246 6.929707 0.788808
v 0.372192 3.794017 1.415424
v 1.264034 3.794017 -0.737677
v 0.003672 7.374386 -1.261529
v -0.889438 7.374386 0.894632
v 0.087648 3.423185 1.296452
v 0.978707 3.423186 -0.854753
v 0.316139 7.632161 -1.130307
v -0.575704 7.632161 1.022792
v 0.412475 5.667782 1.682250
v 1.712044 5.667781 -0.262693
v -0.784512 6.018261 -0.524193
v -0.460915 7.677801 1.092228
v 0.434118 3.224639 0.290068
v 0.832702 7.677801 -0.843806
v 0.393217 4.974076 1.668155
v 1.691652 4.974076 -0.275090
v -0.143897 6.341662 -1.502792
v -1.443466 6.341662 0.442151
v 0.281824 4.328417 1.591735
v 1.578421 4.328418 -0.348758
v 0.017382 6.929707 -1.393801
v -1.281053 6.929707 0.549443
v 0.088904 3.794017 1.460838
v 1.383660 3.794017 -0.476901
v 0.249714 7.374386 -1.236572
v -1.046883 7.374386 0.703921
v -0.166962 3.423185 1.288640
v 1.126655 3.423185 -0.647394
v 0.530577 7.632161 -1.046914
v -0.764179 7.632161 0.890825
v 0.076358 5.667781 1.730396
v 1.730395 5.667782 0.076357
v -0.667172 6.018261 -0.667172
v -0.665141 7.677801 0.981321
v 0.369187 3.224639 0.369187
v 0.981320 7.677801 -0.665141
v 0.060221 4.974076 1.712815
v 1.712814 4.974076 0.060221
v 0.152048 6.341662 -1.501989
v -1.501989 6.341662 0.152049
v -0.034123 4.328417 1.616133
v 1.616132 4.328416 -0.034122
v 0.288966 6.929707 -1.363628
v -1.363628 6.929707 0.288966
v -0.197798 3.794017 1.450112
v 1.450113 3.794017 -0.197799
v 0.486160 7.374386 -1.164095
v -1.164094 7.374385 0.486159
v -0.415154 3.423185 1.231308
v 1.231308 3.423185 -0.415154
v 0.724625 7.632161 -0.923286
v -0.923287 7.632161 0.724624
v -0.262692 5.667782 1.712044
v 1.682250 5.667782 0.412474
v -0.524194 6.018261 -0.784511
v -0.843806 7.677801 0.832702
v 0.290068 3.224639 0.434118
v 1.092228 7.677801 -0.460915
v -0.275090 4.974075 1.691652
v 1.668154 4.974076 0.393217
v 0.442150 6.341662 -1.443467
v -1.502792 6.341662 -0.143897
v -0.348758 4.328417 1.578421
v 1.591735 4.328417 0.281825
v 0.549443 6.929707 -1.281052
v -1.393800 6.929707 0.017382
v -0.476901 3.794017 1.383660
v 1.460837 3.794017 0.088904
v 0.703921 7.374386 -1.046882
v -1.236572 7.374386 0.249714
v -0.647394 3.423185 1.126655
v 1.288640 3.423185 -0.166962
v 0.890825 7.632161 -0.764179
v -1.046913 7.632161 0.530577
v -0.591648 5.667782 1.627899
v 1.569456 5.667782 0.732738
v -0.361071 6.018261 -0.871702
v -0.990046 7.677801 0.652083
v 0.199802 3.224639 0.482366
v 1.161161 7.677801 -0.238975
v -0.599828 4.974076 1.605481
v 1.559388 4.974076 0.711103
v 0.715260 6.341662 -1.329470
v -1.445843 6.341663 -0.434311
v -0.649992 4.328417 1.480053
v 1.506169 4.328418 0.586942
v 0.788808 6.929706 -1.149246
v -1.370410 6.929706 -0.254869
v -0.737677 3.794017 1.264035
v 1.415424 3.794017 0.372192
v 0.894632 7.374386 -0.889438
v -1.261529 7.374386 0.003672
v -0.854754 3.423185 0.978707
v 1.296452 3.423185 0.087648
v 1.022792 7.632161 -0.575704
v -1.130307 7.632161 0.316139
v -0.897867 5.667782 1.481194
v 1.396349 5.667782 1.024844
v -0.184072 6.018261 -0.925394
v -1.098237 7.677801 0.446406
v 0.101858 3.224639 0.512077
v 1.185471 7.677801 -0.007852
v -0.901517 4.974076 1.457610
v 1.390696 4.974076 1.001660
v 0.960884 6.341662 -1.164386
v -1.333332 6.341662 -0.708037
v -0.926246 4.328416 1.324808
v 1.362722 4.328417 0.869503
v 0.997857 6.929707 -0.973275
v -1.294356 6.929707 -0.517325
v -0.970104 3.794018 1.095835
v 1.315615 3.794018 0.641177
v 1.050963 7.374386 -0.697813
v -1.238006 7.374387 -0.242509
v -1.029266 3.423185 0.793146
v 1.254442 3.423185 0.338888
v 1.115454 7.632160 -0.365106
v -1.170264 7.632160 0.089552
v -1.169581 5.667782 1.277568
v 1.169581 5.667782 1.277568
v -0.000000 6.018261 -0.943524
v -1.164224 7.677801 0.223573
v 0.000000 3.224639 0.522109
v 1.164224 7.677801 0.223573
v -1.168560 4.974076 1.253725
v 1.168560 4.974075 1.253725
v 1.169581 6.341662 -0.954553
v -1.169581 6.341662 -0.954553
v -1.166906 4.328417 1.118649
v 1.166906 4.328417 1.118649
v 1.168560 6.929707 -0.759901
v -1.168560 6.929707 -0.759901
v -1.165249 3.794017 0.885519
v 1.165249 3.794017 0.885519
v 1.166906 7.374386 -0.479374
v -1.166906 7.374386 -0.479373
v -1.164225 3.423185 0.577107
v 1.164224 3.423185 0.577107
v 1.165249 7.632161 -0.140476
v -1.165249 7.632161 -0.140475
v -1.396349 5.667782 1.024844
v 0.897867 5.667781 1.481194
v 0.184073 6.018261 -0.925394
v -1.185471 7.677801 -0.007852
v -0.101858 3.224639 0.512077
v 1.098237 7.677801 0.446406
v -1.390696 4.974076 1.001661
v 0.901517 4.974076 1.457610
v 1.333332 6.341662 -0.708037
v -0.960884 6.341662 -1.164385
v -1.362722 4.328416 0.869503
v 0.926246 4.328416 1.324807
v 1.294356 6.929707 -0.517325
v -0.997857 6.929707 -0.973275
v -1.315615 3.794018 0.641177
v 0.970104 3.794018 1.095834
v 1.238006 7.374386 -0.242509
v -1.050963 7.374386 -0.697813
v -1.254442 3.423185 0.338889
v 1.029266 3.423185 0.793147
v 1.170264 7.632160 0.089552
v -1.115455 7.632160 -0.365106
v -1.569456 5.667782 0.732739
v 0.591647 5.667781 1.627899
v 0.361071 6.018261 -0.871702
v -1.161160 7.677801 -0.238975
v -0.199802 3.224639 0.482366
v 0.990045 7.677801 0.652084
v -1.559388 4.974076 0.711103
v 0.599829 4.974077 1.605479
v 1.445844 6.341662 -0.434312
v -0.715261 6.341662 -1.329471
v -1.506169 4.328417 0.586941
v 0.649992 4.328416 1.480053
v 1.370410 6.929707 -0.254869
v -0.788808 6.929707 -1.149246
v -1.415424 3.794017 0.372192
v 0.737677 3.794017 1.264034
v 1.261529 7.374386 0.003672
v -0.894632 7.374386 -0.889438
v -1.296452 3.423185 0.087648
v 0.854753 3.423186 0.978707
v 1.130307 7.632161 0.316139
v -1.022792 7.632161 -0.575704
v -1.682250 5.667782 0.412475
v 0.262693 5.667781 1.712044
v 0.524193 6.018261 -0.784512
v -1.092228 7.677801 -0.460915
v -0.290068 3.224639 0.434118
v 0.843806 7.677801 0.832702
v -1.668155 4.974076 0.393217
v 0.275090 4.974076 1.691652
v 1.502792 6.341662 -0.143897
v -0.442151 6.341662 -1.443466
v -1.591735 4.328417 0.281824
v 0.348758 4.328418 1.578421
v 1.393801 6.929707 0.017382
v -0.549443 6.929707 -1.281053
v -1.460838 3.794017 0.088904
v 0.476901 3.794017 1.383660
v 1.236572 7.374386 0.249714
v -0.703921 7.374386 -1.046883
v -1.288640 3.423185 -0.166962
v 0.647394 3.423185 1.126655
v 1.046914 7.632161 0.530577
v -0.890825 7.632161 -0.764179
v -1.730396 5.667781 0.076358
v -0.076357 5.667782 1.730395
v 0.667172 6.018261 -0.667172
v -0.981321 7.677801 -0.665141
v -0.369187 3.224639 0.369187
v 0.665141 7.677801 0.981320
v -1.712815 4.974076 0.060221
v -0.060221 4.974076 1.712814
v 1.501989 6.341662 0.152048
v -0.152049 6.341662 -1.501989
v -1.616133 4.328417 -0.034123
v 0.034122 4.328416 1.616132
v 1.363628 6.929707 0.288966
v -0.288966 6.929707 -1.363628
v -1.450112 3.794017 -0.197798
v 0.197799 3.794017 1.450113
v 1.164095 7.374386 0.486160
v -0.486159 7.374385 -1.164094
v -1.231308 3.423185 -0.415154
v 0.415154 3.423185 1.231308
v 0.923286 7.632161 0.724625
v -0.724624 7.632161 -0.923287
v -1.712044 5.667782 -0.262692
v -0.412474 5.667782 1.682250
v 0.784511 6.018261 -0.524194
v -0.832702 7.677801 -0.843806
v -0.434118 3.224639 0.290068
v 0.460915 7.677801 1.092228
v -1.691652 4.974075 -0.275090
v -0.393217 4.974076 1.668154
v 1.443467 6.341662 0.442150
v 0.143897 6.341662 -1.502792
v -1.578421 4.328417 -0.348758
v -0.281825 4.328417 1.591735
v 1.281052 6.929707 0.549443
v -0.017382 6.929707 -1.393800
v -1.383660 3.794017 -0.476901
v -0.088904 3.794017 1.460837
v 1.046882 7.374386 0.703921
v -0.249714 7.374386 -1.236572
v -1.126655 3.423185 -0.647394
v 0.166962 3.423185 1.288640
v 0.764179 7.632161 0.890825
v -0.530577 7.632161 -1.046913
v -1.627899 5.667782 -0.591648
v -0.732738 5.667782 1.569456
v 0.871702 6.018261 -0.361071
v -0.652083 7.677801 -0.990046
v -0.482366 3.224639 0.199802
v 0.238975 7.677801 1.161161
v -1.605481 4.974076 -0.599828
v -0.711103 4.974076 1.559388
v 1.329470 6.341662 0.715260
v 0.434311 6.341663 -1.445843
v -1.480053 4.328417 -0.649992
v -0.586942 4.328418 1.506169
v 1.149246 6.929706 0.788808
v 0.254869 6.929706 -1.370410
v -1.264035 3.794017 -0.737677
v -0.372192 3.794017 1.415424
v 0.889438 7.374386 0.894632
v -0.003672 7.374386 -1.261529
v -0.978707 3.423185 -0.854754
v -0.087648 3.423185 1.296452
v 0.575704 7.632161 1.022792
v -0.316139 7.632161 -1.130307
v -1.481194 5.667782 -0.897867
v -1.024844 5.667782 1.396349
v 0.925394 6.018261 -0.184072
v -0.446406 7.677801 -1.098237
v -0.512077 3.224639 0.101858
v 0.007852 7.677801 1.185471
v -1.457610 4.974076 -0.901517
v -1.001660 4.974076 1.390696
v 1.164386 6.341662 0.960884
v 0.708037 6.341662 -1.333332
v -1.324808 4.328416 -0.926246
v -0.869503 4.328417 1.362722
v 0.973275 6.929707 0.997857
v 0.517325 6.929707 -1.294356
v -1.095835 3.794018 -0.970104
v -0.641177 3.794018 1.315615
v 0.697813 7.374386 1.050963
v 0.242509 7.374387 -1.238006
v -0.793146 3.423185 -1.029266
v -0.338888 3.423185 1.254442
v 0.365106 7.632160 1.115454
v -0.089552 7.632160 -1.170264
v -1.277568 5.667782 -1.169581
v -1.277568 5.667782 1.169581
v 0.943524 6.018261 -0.000000
v -0.223573 7.677801 -1.164224
v -0.522109 3.224639 0.000000
v -0.223573 7.677801 1.164224
v -1.253725 4.974076 -1.168560
v -1.253725 4.974075 1.168560
v 0.954553 6.341662 1.169581
v 0.954553 6.341662 -1.169581
v -1.118649 4.328417 -1.166906
v -1.118649 4.328417 1.166906
v 0.759901 6.929707 1.168560
v 0.759901 6.929707 -1.168560
v -0.885519 3.794017 -1.165249
v -0.885519 3.794017 1.165249
v 0.479374 7.374386 1.166906
v 0.479373 7.374386 -1.166906
v -0.577107 3.423185 -1.164225
v -0.577107 3.423185 1.164224
v 0.140476 7.632161 1.165249
v 0.140475 7.632161 -1.165249
v -1.024844 5.667782 -1.396349
v -1.481194 5.667781 0.897867
v 0.925394 6.018261 0.184073
v 0.007852 7.677801 -1.185471
v -0.512077 3.224639 -0.101858
v -0.446406 7.677801 1.098237
v -1.001661 4.974076 -1.390696
v -1.457610 4.974076 0.901517
v 0.708037 6.341662 1.333332
v 1.164385 6.341662 -0.960884
v -0.869503 4.328416 -1.362722
v -1.324807 4.328416 0.926246
v 0.517325 6.929707 1.294356
v 0.973275 6.929707 -0.997857
v -0.641177 3.794018 -1.315615
v -1.095834 3.794018 0.970104
v 0.242509 7.374386 1.238006
v 0.697813 7.374386 -1.050963
v -0.338889 3.423185 -1.254442
v -0.793147 3.423185 1.029266
v -0.089552 7.632160 1.170264
v 0.365106 7.632160 -1.115455
v -0.732739 5.667782 -1.569456
v -1.627899 5.667781 0.591647
v 0.871702 6.018261 0.361071
v 0.238975 7.677801 -1.161160
v -0.482366 3.224639 -0.199802
v -0.652084 7.677801 0.990045
v -0.711103 4.974076 -1.559388
v -1.605479 4.974077 0.599829
v 0.434312 6.341662 1.445844
v 1.329471 6.341662 -0.715261
v -0.586941 4.328417 -1.506169
v -1.480053 4.328416 0.649992
v 0.254869 6.929707 1.370410
v 1.149246 6.929707 -0.788808
v -0.372192 3.794017 -1.415424
v -1.264034 3.794017 0.737677
v -0.003672 7.374386 1.261529
v 0.889438 7.374386 -0.894632
v -0.087648 3.423185 -1.296452
v -0.978707 3.423186 0.854753
v -0.316139 7.632161 1.130307
v 0.575704 7.632161 -1.022792
v -0.412475 5.667782 -1.682250
v -1.712044 5.667781 0.262693
v 0.784512 6.018261 0.524193
v 0.460915 7.677801 -1.092228
v -0.434118 3.224639 -0.290068
v -0.832702 7.677801 0.843806
v -0.393217 4.974076 -1.668155
v -1.691652 4.974076 0.275090
v 0.143897 6.341662 1.502792
v 1.443466 6.341662 -0.442151
v -0.281824 4.328417 -1.591735
v -1.578421 4.328418 0.348758
v -0.017382 6.929707 1.393801
v 1.281053 6.929707 -0.549443
v -0.088904 3.794017 -1.460838
v -1.383660 3.794017 0.476901
v -0.249714 7.374386 1.236572
v 1.046883 7.374386 -0.703921
v 0.166962 3.423185 -1.288640
v -1.126655 3.423185 0.647394
v -0.530577 7.632161 1.046914
v 0.764179 7.632161 -0.890825
v -0.076358 5.667781 -1.730396
v -1.730395 5.667782 -0.076357
v 0.667172 6.018261 0.667172
v 0.665141 7.677801 -0.981321
v -0.369187 3.224639 -0.369187
v -0.981320 7.677801 0.665141
v -0.060221 4.974076 -1.712815
v -1.712814 4.974076 -0.060221
v -0.152048 6.341662 1.501989
v 1.501989 6.341662 -0.152049
v 0.034123 4.328417 -1.616133
v -1.616132 4.328416 0.034122
v -0.288966 6.929707 1.363628
v 1.363628 6.929707 -0.288966
v 0.197798 3.794017 -1.450112
v -1.450113 3.794017 0.197799
v -0.486160 7.374386 1.164095
v 1.164094 7.374385 -0.486159
v 0.415154 3.423185 -1.231308
v -1.231308 3.423185 0.415154
v -0.724625 7.632161 0.923286
v 0.923287 7.632161 -0.724624
v 0.262692 5.667782 -1.712044
v -1.682250 5.667782 -0.412474
v 0.524194 6.018261 0.784511
v 0.843806 7.677801 -0.832702
v -0.290068 3.224639 -0.434118
v -1.092228 7.677801 0.460915
v 0.275090 4.974075 -1.691652
v -1.668154 4.974076 -0.393217
v -0.442150 6.341662 1.443467
v 1.502792 6.341662 0.143897
v 0.348758 4.328417 -1.578421
v -1.591735 4.328417 -0.281825
v -0.549443 6.929707 1.281052
v 1.393800 6.929707 -0.017382
v 0.476901 3.794017 -1.383660
v -1.460837 3.794017 -0.088904
v -0.703921 7.374386 1.046882
v 1.236572 7.374386 -0.249714
v 0.647394 3.423185 -1.126655
v -1.288640 3.423185 0.166962
v -0.890825 7.632161 0.764179
v 1.046913 7.632161 -0.530577
v 0.591648 5.667782 -1.627899
v -1.569456 5.667782 -0.732738
v 0.361071 6.018261 0.871702
v 0.990046 7.677801 -0.652083
v -0.199802 3.224639 -0.482366
v -1.161161 7.677801 0.238975
v 0.599828 4.974076 -1.605481
v -1.559388 4.974076 -0.711103
v -0.715260 6.341662 1.329470
v 1.445843 6.341663 0.434311
v 0.649992 4.328417 -1.480053
v -1.506169 4.328418 -0.586942
v -0.788808 6.929706 1.149246
v 1.370410 6.929706 0.254869
v 0.737677 3.794017 -1.264035
v -1.415424 3.794017 -0.372192
v -0.894632 7.374386 0.889438
v 1.261529 7.374386 -0.003672
v 0.854754 3.423185 -0.978707
v -1.296452 3.423185 -0.087648
v -1.022792 7.632161 0.575704
v 1.130307 7.632161 -0.316139
v 0.897867 5.667782 -1.481194
v -1.396349 5.667782 -1.024844
v 0.184072 6.018261 0.925394
v 1.098237 7.677801 -0.446406
v -0.101858 3.224639 -0.512077
v -1.185471 7.677801 0.007852
v 0.901517 4.974076 -1.457610
v -1.390696 4.974076 -1.001660
v -0.960884 6.341662 1.164386
v 1.333332 6.341662 0.708037
v 0.926246 4.328416 -1.324808
v -1.362722 4.328417 -0.869503
v -0.997857 6.929707 0.973275
v 1.294356 6.929707 0.517325
v 0.970104 3.794018 -1.095835
v -1.315615 3.794018 -0.641177
v -1.050963 7.374386 0.697813
v 1.238006 7.374387 0.242509
v 1.029266 3.423185 -0.793146
v -1.254442 3.423185 -0.338888
v -1.115454 7.632160 0.365106
v 1.170264 7.632160 -0.089552
vn -0.0000 -1.0000 -0.0000
vn -0.0000 0.9878 -0.1559
vn -0.0000 0.0669 -0.9978
vn -0.0000 0.8502 -0.5265
vn -0.0000 0.5855 -0.8107
vn -0.0000 0.3562 -0.9344
vn -0.0000 0.1681 -0.9858
vn 0.0304 0.9878 -0.1529
vn 0.1947 0.0669 -0.9786
vn 0.1027 0.8502 -0.5164
vn 0.1582 0.5855 -0.7951
vn 0.1823 0.3562 -0.9165
vn 0.1923 0.1681 -0.9668
vn 0.0596 0.9878 -0.1440
vn 0.3818 0.0669 -0.9218
vn 0.2015 0.8502 -0.4864
vn 0.3102 0.5855 -0.7490
vn 0.3576 0.3562 -0.8633
vn 0.3772 0.1681 -0.9107
vn 0.0866 0.9878 -0.1296
vn 0.5543 0.0669 -0.8296
vn 0.2925 0.8502 -0.4378
vn 0.4504 0.5855 -0.6741
vn 0.5191 0.3562 -0.7769
vn 0.5477 0.1681 -0.8196
vn 0.1102 0.9878 -0.1102
vn 0.7055 0.0669 -0.7055
vn 0.3723 0.8502 -0.3723
vn 0.5733 0.5855 -0.5733
vn 0.6607 0.3562 -0.6607
vn 0.6970 0.1681 -0.6970
vn 0.1296 0.9878 -0.0866
vn 0.8296 0.0669 -0.5543
vn 0.4378 0.8502 -0.2925
vn 0.6741 0.5855 -0.4504
vn 0.7769 0.3562 -0.5191
vn 0.8196 0.1681 -0.5477
vn 0.1440 0.9878 -0.0596
vn 0.9218 0.0669 -0.3818
vn 0.4864 0.8502 -0.2015
vn 0.7490 0.5855 -0.3102
vn 0.8633 0.3562 -0.3576
vn 0.9107 0.1681 -0.3772
vn 0.1529 0.9878 -0.0304
vn 0.9786 0.0669 -0.1947
vn 0.5164 0.8502 -0.1027
vn 0.7951 0.5855 -0.1582
vn 0.9165 0.3562 -0.1823
vn 0.9668 0.1681 -0.1923
vn 0.1559 0.9878 -0.0000
vn 0.9978 0.0669 -0.0000
vn 0.5265 0.8502 -0.0000
vn 0.8107 0.5855 -0.0000
vn 0.9344 0.3562 -0.0000
vn 0.9858 0.1681 -0.0000
vn 0.1529 0.9878 0.0304
vn 0.9786 0.0669 0.1947
vn 0.5164 0.8502 0.1027
vn 0.7951 0.5855 0.1582
vn 0.9165 0.3562 0.1823
vn 0.9668 0.1681 0.1923
vn 0.1440 0.9878 0.0596
vn 0.9218 0.0669 0.3818
vn 0.4864 0.8502 0.2015
vn 0.7490 0.5855 0.3102
vn 0.8633 0.3562 0.3576
vn 0.9107 0.1681 0.3772
vn 0.1296 0.9878 0.0866
vn 0.8296 0.0669 0.5543
vn 0.4378 0.8502 0.2925
vn 0.6741 0.5855 0.4504
vn 0.7769 0.3562 0.5191
vn 0.8196 0.1681 0.5477
vn 0.1102 0.9878 0.1102
vn 0.7055 0.0669 0.7055
vn 0.3723 0.8502 0.3723
vn 0.5733 0.5855 0.5733
vn 0.6607 0.3562 0.6607
vn 0.6970 0.1681 0.6970
vn 0.0866 0.9878 0.1296
vn 0.5543 0.0669 0.8296
vn 0.2925 0.8502 0.4378
vn 0.4504 0.5855 0.6741
vn 0.5191 0.3562 0.7769
vn 0.5477 0.1681 0.8196
vn 0.0596 0.9878 0.1440
vn 0.3818 0.0669 0.9218
vn 0.2015 0.8502 0.4864
vn 0.3102 0.5855 0.7490
vn 0.3576 0.3562 0.8633
vn 0.3772 0.1681 0.9107
vn 0.0304 0.9878 0.1529
vn 0.1947 0.0669 0.9786
vn 0.1027 0.8502 0.5164
vn 0.1582 0.5855 0.7951
vn 0.1823 0.3562 0.9165
vn 0.1923 0.1681 0.9668
vn -0.0000 0.9878 0.1559
vn -0.0000 0.0669 0.9978
vn -0.0000 0.8502 0.5265
vn -0.0000 0.5855 0.8107
vn -0.0000 0.3562 0.9344
vn -0.0000 0.1681 0.9858
vn -0.0304 0.9878 0.1529
vn -0.1947 0.0669 0.9786
vn -0.1027 0.8502 0.5164
vn -0.1582 0.5855 0.7951
vn -0.1823 0.3562 0.9165
vn -0.1923 0.1681 0.9668
vn -0.0596 0.9878 0.1440
vn -0.3818 0.0669 0.9218
vn -0.2015 0.8502 0.4864
vn -0.3102 0.5855 0.7490
vn -0.3576 0.3562 0.8633
vn -0.3772 0.1681 0.9107
vn -0.0866 0.9878 0.1296
vn -0.5543 0.0669 0.8296
vn -0.2925 0.8502 0.4378
vn -0.4504 0.5855 0.6741
vn -0.5191 0.3562 0.7769
vn -0.5477 0.1681 0.8196
vn -0.1102 0.9878 0.1102
vn -0.7055 0.0669 0.7055
vn -0.3723 0.8502 0.3723
vn -0.5733 0.5855 0.5733
vn -0.6607 0.3562 0.6607
vn -0.6970 0.1681 0.6970
vn -0.1296 0.9878 0.0866
vn -0.8296 0.0669 0.5543
vn -0.4378 0.8502 0.2925
vn -0.6741 0.5855 0.4504
vn -0.7769 0.3562 0.5191
vn -0.8196 0.1681 0.5477
vn -0.1440 0.9878 0.0596
vn -0.9218 0.0669 0.3818
vn -0.4864 0.8502 0.2015
vn -0.7490 0.5855 0.3102
vn -0.8633 0.3562 0.3576
vn -0.9107 0.1681 0.3772
vn -0.1529 0.9878 0.0304
vn -0.9786 0.0669 0.1947
vn -0.5164 0.8502 0.1027
vn -0.7951 0.5855 0.1582
vn -0.9165 0.3562 0.1823
vn -0.9668 0.1681 0.1923
vn -0.1559 0.9878 -0.0000
vn -0.9978 0.0669 -0.0000
vn -0.5265 0.8502 -0.0000
vn -0.8107 0.5855 -0.0000
vn -0.9344 0.3562 -0.0000
vn -0.9858 0.1681 -0.0000
vn -0.1529 0.9878 -0.0304
vn -0.9786 0.0669 -0.1947
vn -0.5164 0.8502 -0.1027
vn -0.7951 0.5855 -0.1582
vn -0.9165 0.3562 -0.1823
vn -0.9668 0.1681 -0.1923
vn -0.1440 0.9878 -0.0596
vn -0.9218 0.0669 -0.3818
vn -0.4864 0.8502 -0.2015
vn -0.7490 0.5855 -0.3102
vn -0.8633 0.3562 -0.3576
vn -0.9107 0.1681 -0.3772
vn -0.1296 0.9878 -0.0866
vn -0.8296 0.0669 -0.5543
vn -0.4378 0.8502 -0.2925
vn -0.6741 0.5855 -0.4504
vn -0.7769 0.3562 -0.5191
vn -0.8196 0.1681 -0.5477
vn -0.1102 0.9878 -0.1102
vn -0.7055 0.0669 -0.7055
vn -0.3723 0.8502 -0.3723
vn -0.5733 0.5855 -0.5733
vn -0.6607 0.3562 -0.6607
vn -0.6970 0.1681 -0.6970
vn -0.0866 0.9878 -0.1296
vn -0.5543 0.0669 -0.8296
vn -0.2925 0.8502 -0.4378
vn -0.4504 0.5855 -0.6741
vn -0.5191 0.3562 -0.7769
vn -0.5477 0.1681 -0.8196
vn -0.0596 0.9878 -0.1440
vn -0.3818 0.0669 -0.9218
vn -0.2015 0.8502 -0.4864
vn -0.3102 0.5855 -0.7490
vn -0.3576 0.3562 -0.8633
vn -0.3772 0.1681 -0.9107
vn -0.0304 0.9878 -0.1529
vn -0.1947 0.0669 -0.9786
vn -0.1027 0.8502 -0.5164
vn -0.1582 0.5855 -0.7951
vn -0.1823 0.3562 -0.9165
vn -0.1923 0.1681 -0.9668
vn -0.1944 -0.0828 0.9774
vn -0.0979 -0.0411 0.9943
vn -0.0000 -0.0828 0.9966
vn -0.0966 -0.1673 0.9812
vn -0.1885 -0.2582 0.9475
vn -0.0000 -0.2582 0.9661
vn -0.0916 -0.3547 0.9305
vn -0.1728 -0.4646 0.8685
vn -0.0000 -0.4646 0.8855
vn -0.0796 -0.5836 0.8082
vn -0.1359 -0.7174 0.6833
vn -0.0000 -0.7174 0.6967
vn -0.0518 -0.8490 0.5258
vn -0.0564 -0.9573 0.2835
vn -0.0000 -0.9573 0.2890
vn -0.0146 -0.9888 0.1483
vn -0.3814 -0.0828 0.9207
vn -0.2900 -0.0411 0.9561
vn -0.2862 -0.1673 0.9435
vn -0.3697 -0.2582 0.8925
vn -0.2714 -0.3547 0.8947
vn -0.3389 -0.4646 0.8181
vn -0.2357 -0.5836 0.7771
vn -0.2666 -0.7174 0.6437
vn -0.1534 -0.8490 0.5056
vn -0.1106 -0.9573 0.2670
vn -0.0433 -0.9888 0.1426
vn -0.5537 -0.0828 0.8286
vn -0.4710 -0.0411 0.8812
vn -0.4648 -0.1673 0.8695
vn -0.5367 -0.2582 0.8033
vn -0.4408 -0.3547 0.8246
vn -0.4920 -0.4646 0.7363
vn -0.3828 -0.5836 0.7162
vn -0.3871 -0.7174 0.5793
vn -0.2491 -0.8490 0.4660
vn -0.1606 -0.9573 0.2403
vn -0.0703 -0.9888 0.1315
vn -0.7047 -0.0828 0.7047
vn -0.6339 -0.0411 0.7724
vn -0.6255 -0.1673 0.7621
vn -0.6831 -0.2582 0.6831
vn -0.5932 -0.3547 0.7228
vn -0.6262 -0.4646 0.6262
vn -0.5152 -0.5836 0.6277
vn -0.4926 -0.7174 0.4926
vn -0.3352 -0.8490 0.4084
vn -0.2044 -0.9573 0.2044
vn -0.0946 -0.9888 0.1152
vn -0.8286 -0.0828 0.5537
vn -0.7724 -0.0411 0.6339
vn -0.7621 -0.1673 0.6255
vn -0.8033 -0.2582 0.5367
vn -0.7228 -0.3547 0.5932
vn -0.7363 -0.4646 0.4920
vn -0.6277 -0.5836 0.5152
vn -0.5793 -0.7174 0.3871
vn -0.4084 -0.8490 0.3352
vn -0.2403 -0.9573 0.1606
vn -0.1152 -0.9888 0.0946
vn -0.9207 -0.0828 0.3814
vn -0.8812 -0.0411 0.4710
vn -0.8695 -0.1673 0.4648
vn -0.8925 -0.2582 0.3697
vn -0.8246 -0.3547 0.4408
vn -0.8181 -0.4646 0.3389
vn -0.7162 -0.5836 0.3828
vn -0.6437 -0.7174 0.2666
vn -0.4660 -0.8490 0.2491
vn -0.2670 -0.9573 0.1106
vn -0.1315 -0.9888 0.0703
vn -0.9774 -0.0828 0.1944
vn -0.9561 -0.0411 0.2900
vn -0.9435 -0.1673 0.2862
vn -0.9475 -0.2582 0.1885
vn -0.8947 -0.3547 0.2714
vn -0.8685 -0.4646 0.1728
vn -0.7771 -0.5836 0.2357
vn -0.6833 -0.7174 0.1359
vn -0.5056 -0.8490 0.1534
vn -0.2835 -0.9573 0.0564
vn -0.1426 -0.9888 0.0433
vn -0.9966 -0.0828 -0.0000
vn -0.9943 -0.0411 0.0979
vn -0.9812 -0.1673 0.0966
vn -0.9661 -0.2582 -0.0000
vn -0.9305 -0.3547 0.0916
vn -0.8855 -0.4646 -0.0000
vn -0.8082 -0.5836 0.0796
vn -0.6967 -0.7174 -0.0000
vn -0.5258 -0.8490 0.0518
vn -0.2890 -0.9573 -0.0000
vn -0.1483 -0.9888 0.0146
vn -0.9774 -0.0828 -0.1944
vn -0.9943 -0.0411 -0.0979
vn -0.9812 -0.1673 -0.0966
vn -0.9475 -0.2582 -0.1885
vn -0.9305 -0.3547 -0.0916
vn -0.8685 -0.4646 -0.1728
vn -0.8082 -0.5836 -0.0796
vn -0.6833 -0.7174 -0.1359
vn -0.5258 -0.8490 -0.0518
vn -0.2835 -0.9573 -0.0564
vn -0.1483 -0.9888 -0.0146
vn -0.9207 -0.0828 -0.3814
vn -0.9561 -0.0411 -0.2900
vn -0.9435 -0.1673 -0.2862
vn -0.8925 -0.2582 -0.3697
vn -0.8947 -0.3547 -0.2714
vn -0.8181 -0.4646 -0.3389
vn -0.7771 -0.5836 -0.2357
vn -0.6437 -0.7174 -0.2666
vn -0.5056 -0.8490 -0.1534
vn -0.2670 -0.9573 -0.1106
vn -0.1426 -0.9888 -0.0433
vn -0.8286 -0.0828 -0.5537
vn -0.8812 -0.0411 -0.4710
vn -0.8695 -0.1673 -0.4648
vn -0.8033 -0.2582 -0.5367
vn -0.8246 -0.3547 -0.4408
vn -0.7363 -0.4646 -0.4920
vn -0.7162 -0.5836 -0.3828
vn -0.5793 -0.7174 -0.3871
vn -0.4660 -0.8490 -0.2491
vn -0.2403 -0.9573 -0.1606
vn -0.1315 -0.9888 -0.0703
vn -0.7047 -0.0828 -0.7047
vn -0.7724 -0.0411 -0.6339
vn -0.7621 -0.1673 -0.6255
vn -0.6831 -0.2582 -0.6831
vn -0.7228 -0.3547 -0.5932
vn -0.6262 -0.4646 -0.6262
vn -0.6277 -0.5836 -0.5152
vn -0.4926 -0.7174 -0.4926
vn -0.4084 -0.8490 -0.3352
vn -0.2044 -0.9573 -0.2044
vn -0.1152 -0.9888 -0.0946
vn -0.5537 -0.0828 -0.8286
vn -0.6339 -0.0411 -0.7724
vn -0.6255 -0.1673 -0.7621
vn -0.5367 -0.2582 -0.8033
vn -0.5932 -0.3547 -0.7228
vn -0.4920 -0.4646 -0.7363
vn -0.5152 -0.5836 -0.6277
vn -0.3871 -0.7174 -0.5793
vn -0.3352 -0.8490 -0.4084
vn -0.1606 -0.9573 -0.2403
vn -0.0946 -0.9888 -0.1152
vn -0.3814 -0.0828 -0.9207
vn -0.4710 -0.0411 -0.8812
vn -0.4648 -0.1673 -0.8695
vn -0.3697 -0.2582 -0.8925
vn -0.4408 -0.3547 -0.8246
vn -0.3389 -0.4646 -0.8181
vn -0.3828 -0.5836 -0.7162
vn -0.2666 -0.7174 -0.6437
vn -0.2491 -0.8490 -0.4660
vn -0.1106 -0.9573 -0.2670
vn -0.0703 -0.9888 -0.1315
vn -0.1944 -0.0828 -0.9774
vn -0.2900 -0.0411 -0.9561
vn -0.2862 -0.1673 -0.9435
vn -0.1885 -0.2582 -0.9475
vn -0.2714 -0.3547 -0.8947
vn -0.1728 -0.4646 -0.8685
vn -0.2357 -0.5836 -0.7771
vn -0.1359 -0.7174 -0.6833
vn -0.1534 -0.8490 -0.5056
vn -0.0564 -0.9573 -0.2835
vn -0.0433 -0.9888 -0.1426
vn -0.0000 -0.0828 -0.9966
vn -0.0979 -0.0411 -0.9943
vn -0.0966 -0.1673 -0.9812
vn -0.0000 -0.2582 -0.9661
vn -0.0916 -0.3547 -0.9305
vn -0.0000 -0.4646 -0.8855
vn -0.0796 -0.5836 -0.8082
vn -0.0000 -0.7174 -0.6967
vn -0.0518 -0.8490 -0.5258
vn -0.0000 -0.9573 -0.2890
vn -0.0146 -0.9888 -0.1483
vn 0.1944 -0.0828 -0.9774
vn 0.0979 -0.0411 -0.9943
vn 0.0966 -0.1673 -0.9812
vn 0.1885 -0.2582 -0.9475
vn 0.0916 -0.3547 -0.9305
vn 0.1728 -0.4646 -0.8685
vn 0.0796 -0.5836 -0.8082
vn 0.1359 -0.7174 -0.6833
vn 0.0518 -0.8490 -0.5258
vn 0.0564 -0.9573 -0.2835
vn 0.0146 -0.9888 -0.1483
vn 0.3814 -0.0828 -0.9207
vn 0.2900 -0.0411 -0.9561
vn 0.2862 -0.1673 -0.9435
vn 0.3697 -0.2582 -0.8925
vn 0.2714 -0.3547 -0.8947
vn 0.3389 -0.4646 -0.8181
vn 0.2357 -0.5836 -0.7771
vn 0.2666 -0.7174 -0.6437
vn 0.1534 -0.8490 -0.5056
vn 0.1106 -0.9573 -0.2670
vn 0.0433 -0.9888 -0.1426
vn 0.5537 -0.0828 -0.8286
vn 0.4710 -0.0411 -0.8812
vn 0.4648 -0.1673 -0.8695
vn 0.5367 -0.2582 -0.8033
vn 0.4408 -0.3547 -0.8246
vn 0.4920 -0.4646 -0.7363
vn 0.3828 -0.5836 -0.7162
vn 0.3871 -0.7174 -0.5793
vn 0.2491 -0.8490 -0.4660
vn 0.1606 -0.9573 -0.2403
vn 0.0703 -0.9888 -0.1315
vn 0.7047 -0.0828 -0.7047
vn 0.6339 -0.0411 -0.7724
vn 0.6255 -0.1673 -0.7621
vn 0.6831 -0.2582 -0.6831
vn 0.5932 -0.3547 -0.7228
vn 0.6262 -0.4646 -0.6262
vn 0.5152 -0.5836 -0.6277
vn 0.4926 -0.7174 -0.4926
vn 0.3352 -0.8490 -0.4084
vn 0.2044 -0.9573 -0.2044
vn 0.0946 -0.9888 -0.1152
vn 0.8286 -0.0828 -0.5537
vn 0.7724 -0.0411 -0.6339
vn 0.7621 -0.1673 -0.6255
vn 0.8033 -0.2582 -0.5367
vn 0.7228 -0.3547 -0.5932
vn 0.7363 -0.4646 -0.4920
vn 0.6277 -0.5836 -0.5152
vn 0.5793 -0.7174 -0.3871
vn 0.4084 -0.8490 -0.3352
vn 0.2403 -0.9573 -0.1606
vn 0.1152 -0.9888 -0.0946
vn 0.9207 -0.0828 -0.3814
vn 0.8812 -0.0411 -0.4710
vn 0.8695 -0.1673 -0.4648
vn 0.8925 -0.2582 -0.3697
vn 0.8246 -0.3547 -0.4408
vn 0.8181 -0.4646 -0.3389
vn 0.7162 -0.5836 -0.3828
vn 0.6437 -0.7174 -0.2666
vn 0.4660 -0.8490 -0.2491
vn 0.2670 -0.9573 -0.1106
vn 0.1315 -0.9888 -0.0703
vn 0.9774 -0.0828 -0.1944
vn 0.9561 -0.0411 -0.2900
vn 0.9435 -0.1673 -0.2862
vn 0.9475 -0.2582 -0.1885
vn 0.8947 -0.3547 -0.2714
vn 0.8685 -0.4646 -0.1728
vn 0.7771 -0.5836 -0.2357
vn 0.6833 -0.7174 -0.1359
vn 0.5056 -0.8490 -0.1534
vn 0.2835 -0.9573 -0.0564
vn 0.1426 -0.9888 -0.0433
vn 0.9966 -0.0828 -0.0000
vn 0.9943 -0.0411 -0.0979
vn 0.9812 -0.1673 -0.0966
vn 0.9661 -0.2582 -0.0000
vn 0.9305 -0.3547 -0.0916
vn 0.8855 -0.4646 -0.0000
vn 0.8082 -0.5836 -0.0796
vn 0.6967 -0.7174 -0.0000
vn 0.5258 -0.8490 -0.0518
vn 0.2890 -0.9573 -0.0000
vn 0.1483 -0.9888 -0.0146
vn 0.9774 -0.0828 0.1944
vn 0.9943 -0.0411 0.0979
vn 0.9812 -0.1673 0.0966
vn 0.9475 -0.2582 0.1885
vn 0.9305 -0.3547 0.0916
vn 0.8685 -0.4646 0.1728
vn 0.8082 -0.5836 0.0796
vn 0.6833 -0.7174 0.1359
vn 0.5258 -0.8490 0.0518
vn 0.2835 -0.9573 0.0564
vn 0.1483 -0.9888 0.0146
vn 0.9207 -0.0828 0.3814
vn 0.9561 -0.0411 0.2900
vn 0.9435 -0.1673 0.2862
vn 0.8925 -0.2582 0.3697
vn 0.8947 -0.3547 0.2714
vn 0.8181 -0.4646 0.3389
vn 0.7771 -0.5836 0.2357
vn 0.6437 -0.7174 0.2666
vn 0.5056 -0.8490 0.1534
vn 0.2670 -0.9573 0.1106
vn 0.1426 -0.9888 0.0433
vn 0.8286 -0.0828 0.5537
vn 0.8812 -0.0411 0.4710
vn 0.8695 -0.1673 0.4648
vn 0.8033 -0.2582 0.5367
vn 0.8246 -0.3547 0.4408
vn 0.7363 -0.4646 0.4920
vn 0.7162 -0.5836 0.3828
vn 0.5793 -0.7174 0.3871
vn 0.4660 -0.8490 0.2491
vn 0.2403 -0.9573 0.1606
vn 0.1315 -0.9888 0.0703
vn 0.7047 -0.0828 0.7047
vn 0.7724 -0.0411 0.6339
vn 0.7621 -0.1673 0.6255
vn 0.6831 -0.2582 0.6831
vn 0.7228 -0.3547 0.5932
vn 0.6262 -0.4646 0.6262
vn 0.6277 -0.5836 0.5152
vn 0.4926 -0.7174 0.4926
vn 0.4084 -0.8490 0.3352
vn 0.2044 -0.9573 0.2044
vn 0.1152 -0.9888 0.0946
vn 0.5537 -0.0828 0.8286
vn 0.6339 -0.0411 0.7724
vn 0.6255 -0.1673 0.7621
vn 0.5367 -0.2582 0.8033
vn 0.5932 -0.3547 0.7228
vn 0.4920 -0.4646 0.7363
vn 0.5152 -0.5836 0.6277
vn 0.3871 -0.7174 0.5793
vn 0.3352 -0.8490 0.4084
vn 0.1606 -0.9573 0.2403
vn 0.0946 -0.9888 0.1152
vn 0.3814 -0.0828 0.9207
vn 0.4710 -0.0411 0.8812
vn 0.4648 -0.1673 0.8695
vn 0.3697 -0.2582 0.8925
vn 0.4408 -0.3547 0.8246
vn 0.3389 -0.4646 0.8181
vn 0.3828 -0.5836 0.7162
vn 0.2666 -0.7174 0.6437
vn 0.2491 -0.8490 0.4660
vn 0.1106 -0.9573 0.2670
vn 0.0703 -0.9888 0.1315
vn 0.1944 -0.0828 0.9774
vn 0.2900 -0.0411 0.9561
vn 0.2862 -0.1673 0.9435
vn 0.1885 -0.2582 0.9475
vn 0.2714 -0.3547 0.8947
vn 0.1728 -0.4646 0.8685
vn 0.2357 -0.5836 0.7771
vn 0.1359 -0.7174 0.6833
vn 0.1534 -0.8490 0.5056
vn 0.0564 -0.9573 0.2835
vn 0.0433 -0.9888 0.1426
vn 0.0979 -0.0411 0.9943
vn 0.0966 -0.1673 0.9812
vn 0.0916 -0.3547 0.9305
vn 0.0796 -0.5836 0.8082
vn 0.0518 -0.8490 0.5258
vn 0.0146 -0.9888 0.1483
vn -0.0285 0.9569 -0.2889
vn 0.0285 0.9569 -0.2889
vn -0.0000 1.0000 -0.0000
vn 0.0980 -0.0000 -0.9952
vn 0.0977 0.0824 -0.9918
vn -0.0977 0.0824 -0.9918
vn -0.0980 -0.0000 -0.9952
vn -0.0685 0.7157 -0.6951
vn 0.0685 0.7157 -0.6951
vn -0.0869 0.4628 -0.8822
vn 0.0869 0.4628 -0.8822
vn -0.0947 0.2571 -0.9617
vn 0.0947 0.2571 -0.9617
vn 0.0843 0.9569 -0.2778
vn 0.2893 0.0824 -0.9537
vn 0.2903 -0.0000 -0.9569
vn 0.2027 0.7157 -0.6684
vn 0.2573 0.4628 -0.8483
vn 0.2805 0.2571 -0.9248
vn 0.1368 0.9569 -0.2560
vn 0.4698 0.0824 -0.8789
vn 0.4714 -0.0000 -0.8819
vn 0.3292 0.7157 -0.6160
vn 0.4179 0.4628 -0.7818
vn 0.4556 0.2571 -0.8523
vn 0.1842 0.9569 -0.2244
vn 0.6322 0.0824 -0.7704
vn 0.6344 -0.0000 -0.7730
vn 0.4431 0.7157 -0.5399
vn 0.5624 0.4628 -0.6852
vn 0.6131 0.2571 -0.7470
vn 0.2244 0.9569 -0.1842
vn 0.7704 0.0824 -0.6322
vn 0.7730 -0.0000 -0.6344
vn 0.5399 0.7157 -0.4431
vn 0.6852 0.4628 -0.5624
vn 0.7470 0.2571 -0.6131
vn 0.2560 0.9569 -0.1368
vn 0.8789 0.0824 -0.4698
vn 0.8819 -0.0000 -0.4714
vn 0.6160 0.7157 -0.3292
vn 0.7818 0.4628 -0.4179
vn 0.8523 0.2571 -0.4556
vn 0.2778 0.9569 -0.0843
vn 0.9537 0.0824 -0.2893
vn 0.9569 -0.0000 -0.2903
vn 0.6684 0.7157 -0.2027
vn 0.8483 0.4628 -0.2573
vn 0.9248 0.2571 -0.2805
vn 0.2889 0.9569 -0.0285
vn 0.9918 0.0824 -0.0977
vn 0.9952 -0.0000 -0.0980
vn 0.6951 0.7157 -0.0685
vn 0.8822 0.4628 -0.0869
vn 0.9617 0.2571 -0.0947
vn 0.2889 0.9569 0.0285
vn 0.9918 0.0824 0.0977
vn 0.9952 -0.0000 0.0980
vn 0.6951 0.7157 0.0685
vn 0.8822 0.4628 0.0869
vn 0.9617 0.2571 0.0947
vn 0.2778 0.9569 0.0843
vn 0.9537 0.0824 0.2893
vn 0.9569 -0.0000 0.2903
vn 0.6684 0.7157 0.2027
vn 0.8483 0.4628 0.2573
vn 0.9248 0.2571 0.2805
vn 0.2560 0.9569 0.1368
vn 0.8789 0.0824 0.4698
vn 0.8819 -0.0000 0.4714
vn 0.6160 0.7157 0.3292
vn 0.7818 0.4628 0.4179
vn 0.8523 0.2571 0.4556
vn 0.2244 0.9569 0.1842
vn 0.7704 0.0824 0.6322
vn 0.7730 -0.0000 0.6344
vn 0.5399 0.7157 0.4431
vn 0.6852 0.4628 0.5624
vn 0.7470 0.2571 0.6131
vn 0.1842 0.9569 0.2244
vn 0.6322 0.0824 0.7704
vn 0.6344 -0.0000 0.7730
vn 0.4431 0.7157 0.5399
vn 0.5624 0.4628 0.6852
vn 0.6131 0.2571 0.7470
vn 0.1368 0.9569 0.2560
vn 0.4698 0.0824 0.8789
vn 0.4714 -0.0000 0.8819
vn 0.3292 0.7157 0.6160
vn 0.4179 0.4628 0.7818
vn 0.4556 0.2571 0.8523
vn 0.0843 0.9569 0.2778
vn 0.2893 0.0824 0.9537
vn 0.2903 -0.0000 0.9569
vn 0.2027 0.7157 0.6684
vn 0.2573 0.4628 0.8483
vn 0.2805 0.2571 0.9248
vn 0.0285 0.9569 0.2889
vn 0.0977 0.0824 0.9918
vn 0.0980 -0.0000 0.9952
vn 0.0685 0.7157 0.6951
vn 0.0869 0.4628 0.8822
vn 0.0947 0.2571 0.9617
vn -0.0285 0.9569 0.2889
vn -0.0977 0.0824 0.9918
vn -0.0980 -0.0000 0.9952
vn -0.0685 0.7157 0.6951
vn -0.0869 0.4628 0.8822
vn -0.0947 0.2571 0.9617
vn -0.0843 0.9569 0.2778
vn -0.2893 0.0824 0.9537
vn -0.2903 -0.0000 0.9569
vn -0.2027 0.7157 0.6684
vn -0.2573 0.4628 0.8483
vn -0.2805 0.2571 0.9248
vn -0.1368 0.9569 0.2560
vn -0.4698 0.0824 0.8789
vn -0.4714 -0.0000 0.8819
vn -0.3292 0.7157 0.6160
vn -0.4179 0.4628 0.7818
vn -0.4556 0.2571 0.8523
vn -0.1842 0.9569 0.2244
vn -0.6322 0.0824 0.7704
vn -0.6344 -0.0000 0.7730
vn -0.4431 0.7157 0.5399
vn -0.5624 0.4628 0.6852
vn -0.6131 0.2571 0.7470
vn -0.2244 0.9569 0.1842
vn -0.7704 0.0824 0.6322
vn -0.7730 -0.0000 0.6344
vn -0.5399 0.7157 0.4431
vn -0.6852 0.4628 0.5624
vn -0.7470 0.2571 0.6131
vn -0.2560 0.9569 0.1368
vn -0.8789 0.0824 0.4698
vn -0.8819 -0.0000 0.4714
vn -0.6160 0.7157 0.3292
vn -0.7818 0.4628 0.4179
vn -0.8523 0.2571 0.4556
vn -0.2778 0.9569 0.0843
vn -0.9537 0.0824 0.2893
vn -0.9569 -0.0000 0.2903
vn -0.6684 0.7157 0.2027
vn -0.8483 0.4628 0.2573
vn -0.9248 0.2571 0.2805
vn -0.2889 0.9569 0.0285
vn -0.9918 0.0824 0.0977
vn -0.9952 -0.0000 0.0980
vn -0.6951 0.7157 0.0685
vn -0.8822 0.4628 0.0869
vn -0.9617 0.2571 0.0947
vn -0.2889 0.9569 -0.0285
vn -0.9918 0.0824 -0.0977
vn -0.9952 -0.0000 -0.0980
vn -0.6951 0.7157 -0.0685
vn -0.8822 0.4628 -0.0869
vn -0.9617 0.2571 -0.0947
vn -0.2778 0.9569 -0.0843
vn -0.9537 0.0824 -0.2893
vn -0.9569 -0.0000 -0.2903
vn -0.6684 0.7157 -0.2027
vn -0.8483 0.4628 -0.2573
vn -0.9248 0.2571 -0.2805
vn -0.2560 0.9569 -0.1368
vn -0.8789 0.0824 -0.4698
vn -0.8819 -0.0000 -0.4714
vn -0.6160 0.7157 -0.3292
vn -0.7818 0.4628 -0.4179
vn -0.8523 0.2571 -0.4556
vn -0.2244 0.9569 -0.1842
vn -0.7704 0.0824 -0.6322
vn -0.7730 -0.0000 -0.6344
vn -0.5399 0.7157 -0.4431
vn -0.6852 0.4628 -0.5624
vn -0.7470 0.2571 -0.6131
vn -0.1842 0.9569 -0.2244
vn -0.6322 0.0824 -0.7704
vn -0.6344 -0.0000 -0.7730
vn -0.4431 0.7157 -0.5399
vn -0.5624 0.4628 -0.6852
vn -0.6131 0.2571 -0.7470
vn -0.1368 0.9569 -0.2560
vn -0.4698 0.0824 -0.8789
vn -0.4714 -0.0000 -0.8819
vn -0.3292 0.7157 -0.6160
vn -0.4179 0.4628 -0.7818
vn -0.4556 0.2571 -0.8523
vn -0.0843 0.9569 -0.2778
vn -0.2893 0.0824 -0.9537
vn -0.2903 -0.0000 -0.9569
vn -0.2027 0.7157 -0.6684
vn -0.2573 0.4628 -0.8483
vn -0.2805 0.2571 -0.9248
vt 0.750000 0.490000
vt 0.796822 0.485388
vt 0.841844 0.471731
vt 0.883337 0.449553
vt 0.919706 0.419706
vt 0.949553 0.383337
vt 0.971731 0.341844
vt 0.985388 0.296822
vt 0.990000 0.250000
vt 0.985388 0.203178
vt 0.971731 0.158156
vt 0.949553 0.116663
vt 0.919706 0.080294
vt 0.883337 0.050447
vt 0.841844 0.028269
vt 0.796822 0.014612
vt 0.750000 0.010000
vt 0.703178 0.014612
vt 0.658156 0.028269
vt 0.616663 0.050447
vt 0.580294 0.080294
vt 0.550447 0.116663
vt 0.528269 0.158156
vt 0.514612 0.203178
vt 0.510000 0.250000
vt 0.514612 0.296822
vt 0.528269 0.341844
vt 0.550447 0.383337
vt 0.580294 0.419706
vt 0.616663 0.449553
vt 0.658156 0.471731
vt 0.703178 0.485388
vt -0.287628 0.837262
vt 0.250000 -0.183713
vt 0.787625 0.837264
vt 0.000000 0.854178
vt 0.283766 1.078818
vt 0.000425 0.972765
vt -0.287157 0.826305
vt -0.287626 -0.188784
vt 0.787627 -0.188781
vt 0.787157 0.826305
vt -0.349786 1.084609
vt -0.287156 -0.099308
vt 0.787157 -0.099308
vt 0.849786 1.084609
vt 0.203226 0.485148
vt -0.167273 -0.082854
vt 0.655579 -0.095391
vt 0.273387 0.487452
vt 0.271646 0.854531
vt 0.304227 1.237145
vt 0.001042 0.986382
vt 0.000000 0.960585
vt 0.891866 0.721092
vt -0.162727 0.930865
vt 0.165386 -0.175380
vt 0.601062 1.118230
vt 0.968750 0.800975
vt 1.331187 1.118230
vt 0.889266 0.710435
vt -0.164404 0.920027
vt -0.362897 -0.075464
vt 0.691694 -0.285239
vt 1.001087 0.951561
vt -0.175437 1.185587
vt -0.344981 0.012200
vt 0.708689 -0.197390
vt 0.319262 0.478327
vt 0.250000 0.489755
vt -0.224192 0.004947
vt 0.580403 -0.167879
vt 0.612220 0.815120
vt 1.325606 0.815122
vt 1.347574 1.325271
vt 0.568598 1.325272
vt 0.971439 0.586822
vt -0.021966 0.998305
vt 0.084025 -0.150699
vt 0.569811 1.118230
vt 0.937500 0.800975
vt 1.305188 1.118229
vt 0.966811 0.576877
vt -0.025726 0.987998
vt -0.414616 0.050361
vt 0.578786 -0.361122
vt 1.123522 0.791552
vt 0.015262 1.250607
vt -0.379943 0.132845
vt 0.612595 -0.278278
vt 0.362476 0.460427
vt 0.296774 0.485148
vt -0.262887 0.102166
vt 0.492531 -0.224308
vt 0.580971 0.815120
vt 1.294029 0.815121
vt 1.337654 1.325273
vt 0.537348 1.325272
vt 1.023285 0.439602
vt 0.129247 1.036980
vt 0.009042 -0.110620
vt 0.538560 1.118230
vt 0.906250 0.800975
vt 1.273938 1.118230
vt 1.016807 0.430752
vt 0.123548 1.027608
vt -0.440795 0.183854
vt 0.453244 -0.413525
vt 1.212388 0.610728
vt 0.214980 1.277176
vt -0.390694 0.257988
vt 0.502564 -0.338867
vt 0.401367 0.434441
vt 0.341750 0.471505
vt -0.281874 0.205065
vt 0.395338 -0.262510
vt 0.549722 0.815118
vt 1.262779 0.815120
vt 1.306403 1.325271
vt 0.506097 1.325271
vt 1.045418 0.285100
vt 0.285100 1.045419
vt -0.056682 -0.056682
vt 0.507313 1.118231
vt 0.875000 0.800975
vt 1.242689 1.118232
vt 1.037337 0.277681
vt 0.277682 1.037337
vt -0.440426 0.319894
vt 0.319893 -0.440425
vt 1.264272 0.416045
vt 0.416045 1.264271
vt -0.376823 0.382829
vt 0.382832 -0.376825
vt 0.434441 0.401367
vt 0.383201 0.449349
vt -0.280420 0.309693
vt 0.292559 -0.281016
vt 0.518473 0.815121
vt 1.231531 0.815121
vt 1.275153 1.325271
vt 0.474849 1.325273
vt 1.036984 0.129246
vt 0.439603 1.023286
vt -0.110619 0.009041
vt 0.476061 1.118229
vt 0.843750 0.800975
vt 1.211437 1.118229
vt 1.027609 0.123549
vt 0.430751 1.016809
vt -0.413525 0.453246
vt 0.183854 -0.440794
vt 1.277177 0.214980
vt 0.610730 1.212389
vt -0.338866 0.502565
vt 0.257991 -0.390693
vt 0.460427 0.362476
vt 0.419533 0.419533
vt -0.258583 0.412026
vt 0.188145 -0.279115
vt 0.487222 0.815120
vt 1.200279 0.815120
vt 1.243903 1.325271
vt 0.443596 1.325271
vt 0.998303 -0.021965
vt 0.586822 0.971437
vt -0.150699 0.084025
vt 0.444812 1.118231
vt 0.812500 0.800975
vt 1.180189 1.118231
vt 0.987998 -0.025725
vt 0.576876 0.966810
vt -0.361122 0.578787
vt 0.050359 -0.414617
vt 1.250607 0.015261
vt 0.791551 1.123521
vt -0.278279 0.612594
vt 0.132843 -0.379942
vt 0.478327 0.319262
vt 0.449349 0.383201
vt -0.217201 0.508132
vt 0.086109 -0.256881
vt 0.455973 0.815121
vt 1.169029 0.815123
vt 1.212653 1.325271
vt 0.412348 1.325273
vt 0.930866 -0.162726
vt 0.721094 0.891865
vt -0.175380 0.165387
vt 0.413562 1.118229
vt 0.781250 0.800975
vt 1.148939 1.118228
vt 0.920025 -0.164404
vt 0.710438 0.889267
vt -0.285238 0.691693
vt -0.075465 -0.362897
vt 1.185585 -0.175437
vt 0.951560 1.001086
vt -0.197389 0.708689
vt 0.012199 -0.344982
vt 0.487452 0.273387
vt 0.471505 0.341750
vt -0.157864 0.594319
vt -0.009629 -0.215169
vt 0.424721 0.815120
vt 1.137777 0.815120
vt 1.181404 1.325271
vt 0.381098 1.325271
vt 0.837264 -0.287627
vt 0.837265 0.787626
vt -0.183713 0.250000
vt 0.382311 1.118230
vt 0.750000 0.800975
vt 1.117688 1.118229
vt 0.826305 -0.287157
vt 0.826305 0.787157
vt -0.188782 0.787627
vt -0.188784 -0.287626
vt 1.084609 -0.349786
vt 1.084609 0.849787
vt -0.099307 0.787156
vt -0.099309 -0.287157
vt 0.485148 0.203226
vt -0.095391 0.655579
vt -0.082854 -0.167273
vt 0.393471 0.815120
vt 1.106529 0.815121
vt 1.150153 1.325271
vt 0.349847 1.325272
vt 0.721096 -0.391866
vt 0.930867 0.662726
vt -0.175380 0.334614
vt 0.351063 1.118229
vt 0.718750 0.800975
vt 1.086438 1.118229
vt 0.710437 -0.389266
vt 0.920027 0.664404
vt -0.075464 0.862900
vt -0.285236 -0.191693
vt 0.951561 -0.501086
vt 1.185587 0.675438
vt 0.012199 0.844981
vt -0.197389 -0.208689
vt 0.471505 0.158250
vt 0.487452 0.226613
vt -0.009630 0.715168
vt -0.157864 -0.094318
vt 0.362221 0.815120
vt 1.075280 0.815121
vt 1.118902 1.325271
vt 0.318598 1.325272
vt 0.586821 -0.471439
vt 0.998302 0.521964
vt -0.150699 0.415976
vt 0.319811 1.118230
vt 0.687500 0.800975
vt 1.055188 1.118229
vt 0.576876 -0.466810
vt 0.987996 0.525726
vt 0.050357 0.914616
vt -0.361125 -0.078786
vt 0.791552 -0.623522
vt 1.250607 0.484739
vt 0.132843 0.879942
vt -0.278278 -0.112594
vt 0.449349 0.116799
vt 0.478327 0.180738
vt 0.086108 0.756881
vt -0.217200 -0.008132
vt 0.330970 0.815120
vt 1.044029 0.815122
vt 1.087653 1.325273
vt 0.287347 1.325272
vt 0.439605 -0.523286
vt 1.036983 0.370752
vt -0.110620 0.490958
vt 0.288561 1.118230
vt 0.656250 0.800975
vt 1.023940 1.118230
vt 0.430752 -0.516807
vt 1.027608 0.376452
vt 0.183855 0.940796
vt -0.413524 0.046755
vt 0.610728 -0.712388
vt 1.277176 0.285020
vt 0.257990 0.890693
vt -0.338867 -0.002565
vt 0.419533 0.080467
vt 0.460427 0.137524
vt 0.188145 0.779116
vt -0.258583 0.087974
vt 0.299722 0.815118
vt 1.012779 0.815120
vt 1.056403 1.325271
vt 0.256097 1.325271
vt 0.285099 -0.545418
vt 1.045419 0.214900
vt -0.056682 0.556682
vt 0.257312 1.118231
vt 0.625000 0.800975
vt 0.992688 1.118232
vt 0.277682 -0.537337
vt 1.037337 0.222319
vt 0.319892 0.940426
vt -0.440426 0.180107
vt 0.416045 -0.764271
vt 1.264271 0.083955
vt 0.382830 0.876823
vt -0.376824 0.117170
vt 0.383201 0.050651
vt 0.434441 0.098633
vt 0.292560 0.781017
vt -0.280420 0.190307
vt 0.268471 0.815121
vt 0.981529 0.815121
vt 1.025151 1.325271
vt 0.224847 1.325273
vt 0.129247 -0.536984
vt 1.023287 0.060396
vt 0.009042 0.610619
vt 0.226060 1.118229
vt 0.593750 0.800975
vt 0.961439 1.118229
vt 0.123548 -0.527609
vt 1.016808 0.069249
vt 0.453247 0.913526
vt -0.440795 0.316146
vt 0.214980 -0.777177
vt 1.212389 -0.110729
vt 0.502565 0.838865
vt -0.390694 0.242010
vt 0.341750 0.028495
vt 0.401367 0.065559
vt 0.395338 0.762509
vt -0.281873 0.294934
vt 0.237221 0.815120
vt 0.950280 0.815120
vt 0.993903 1.325271
vt 0.193596 1.325271
vt -0.021964 -0.498304
vt 0.971438 -0.086821
vt 0.084025 0.650699
vt 0.194812 1.118231
vt 0.562500 0.800975
vt 0.930189 1.118231
vt -0.025725 -0.487998
vt 0.966810 -0.076876
vt 0.578786 0.861123
vt -0.414615 0.449642
vt 0.015261 -0.750607
vt 1.123521 -0.291551
vt 0.612594 0.778279
vt -0.379942 0.367157
vt 0.296774 0.014852
vt 0.362476 0.039573
vt 0.492531 0.724309
vt -0.262887 0.397833
vt 0.205973 0.815121
vt 0.919030 0.815123
vt 0.962653 1.325271
vt 0.162349 1.325273
vt -0.162727 -0.430866
vt 0.891864 -0.221094
vt 0.165387 0.675380
vt 0.163562 1.118229
vt 0.531250 0.800975
vt 0.898937 1.118228
vt -0.164404 -0.420025
vt 0.889267 -0.210437
vt 0.691692 0.785239
vt -0.362898 0.575466
vt -0.175437 -0.685585
vt 1.001086 -0.451560
vt 0.708689 0.697390
vt -0.344982 0.487801
vt 0.250000 0.010245
vt 0.319262 0.021673
vt 0.580404 0.667879
vt -0.224192 0.495053
vt 0.174722 0.815120
vt 0.887778 0.815120
vt 0.931404 1.325271
vt 0.131097 1.325271
vt -0.287627 -0.337265
vt 0.787627 -0.337265
vt 0.250000 0.683714
vt 0.132311 1.118230
vt 0.500000 0.800975
vt 0.867688 1.118229
vt -0.287157 -0.326305
vt 0.787157 -0.326306
vt 0.787628 0.688783
vt -0.287627 0.688783
vt -0.349786 -0.584609
vt 0.849787 -0.584609
vt 0.787156 0.599306
vt -0.287157 0.599307
vt 0.203226 0.014852
vt 0.273387 0.012548
vt 0.655579 0.595390
vt -0.167273 0.582854
vt 0.143472 0.815120
vt 0.856528 0.815121
vt 0.900153 1.325271
vt 0.099847 1.325272
vt -0.391866 -0.221095
vt 0.662727 -0.430866
vt 0.334614 0.675380
vt 0.101061 1.118230
vt 0.468750 0.800975
vt 0.836439 1.118230
vt -0.389267 -0.210437
vt 0.664404 -0.420026
vt 0.862899 0.575467
vt -0.191693 0.785238
vt -0.501086 -0.451560
vt 0.675438 -0.685585
vt 0.844981 0.487801
vt -0.208689 0.697389
vt 0.158250 0.028495
vt 0.226613 0.012548
vt 0.715168 0.509630
vt -0.094318 0.657864
vt 0.112222 0.815120
vt 0.825280 0.815121
vt 0.868902 1.325271
vt 0.068598 1.325272
vt -0.471439 -0.086821
vt 0.521965 -0.498304
vt 0.415975 0.650699
vt 0.069811 1.118230
vt 0.437500 0.800975
vt 0.805188 1.118229
vt -0.466811 -0.076876
vt 0.525726 -0.487997
vt 0.914616 0.449642
vt -0.078786 0.861123
vt -0.623522 -0.291550
vt 0.484739 -0.750607
vt 0.879943 0.367156
vt -0.112594 0.778279
vt 0.116799 0.050651
vt 0.180738 0.021673
vt 0.756881 0.413891
vt -0.008132 0.717201
vt 0.080972 0.815120
vt 0.794030 0.815121
vt 0.837653 1.325273
vt 0.037348 1.325272
vt -0.523287 0.060396
vt 0.370752 -0.536982
vt 0.490958 0.610620
vt 0.038561 1.118230
vt 0.406250 0.800975
vt 0.773938 1.118230
vt -0.516807 0.069248
vt 0.376451 -0.527608
vt 0.940796 0.316146
vt 0.046755 0.913524
vt -0.712388 -0.110728
vt 0.285020 -0.777176
vt 0.890694 0.242010
vt -0.002565 0.838867
vt 0.080467 0.080467
vt 0.137524 0.039573
vt 0.779116 0.311855
vt 0.087974 0.758582
vt 0.049721 0.815118
vt 0.762778 0.815120
vt 0.806403 1.325271
vt 0.006097 1.325271
vt -0.545418 0.214901
vt 0.214900 -0.545419
vt 0.556682 0.556682
vt 0.007312 1.118231
vt 0.375000 0.800975
vt 0.742689 1.118232
vt -0.537337 0.222318
vt 0.222318 -0.537337
vt 0.940426 0.180107
vt 0.180108 0.940426
vt -0.764271 0.083955
vt 0.083955 -0.764270
vt 0.876824 0.117170
vt 0.117169 0.876825
vt 0.050651 0.116799
vt 0.098633 0.065559
vt 0.781016 0.207440
vt 0.190307 0.780420
vt 0.018472 0.815121
vt 0.731530 0.815121
vt 0.775153 1.325271
vt -0.025152 1.325273
vt -0.536984 0.370752
vt 0.060395 -0.523287
vt 0.610619 0.490958
vt -0.023938 1.118229
vt 0.343750 0.800975
vt 0.711438 1.118230
vt -0.527609 0.376451
vt 0.069249 -0.516808
vt 0.913526 0.046754
vt 0.316146 0.940794
vt -0.777177 0.285020
vt -0.110729 -0.712388
vt 0.838865 -0.002565
vt 0.242009 0.890693
vt 0.028495 0.158250
vt 0.065559 0.098633
vt 0.762509 0.104662
vt 0.294934 0.781873
vt -0.012779 0.815120
vt 0.700279 0.815120
vt 0.743903 1.325271
vt -0.056403 1.325271
vt -0.498303 0.521965
vt -0.086821 -0.471437
vt 0.650699 0.415975
vt -0.055188 1.118231
vt 0.312500 0.800975
vt 0.680189 1.118231
vt -0.487998 0.525726
vt -0.076875 -0.466810
vt 0.861124 -0.078785
vt 0.449643 0.914619
vt -0.750607 0.484739
vt -0.291551 -0.623522
vt 0.778279 -0.112594
vt 0.367158 0.879943
vt 0.014852 0.203226
vt 0.039573 0.137524
vt 0.724309 0.007469
vt 0.397833 0.762887
vt -0.044028 0.815121
vt 0.669029 0.815122
vt 0.712652 1.325271
vt -0.087652 1.325273
vt -0.430868 0.662725
vt -0.221095 -0.391867
vt 0.675380 0.334613
vt -0.086438 1.118229
vt 0.281250 0.800975
vt 0.648938 1.118228
vt -0.420026 0.664403
vt -0.210438 -0.389267
vt 0.785238 -0.191693
vt 0.575465 0.862898
vt -0.685585 0.675437
vt -0.451560 -0.501085
vt 0.697389 -0.208689
vt 0.487801 0.844982
vt 0.010245 0.250000
vt 0.021673 0.180738
vt 0.667879 -0.080403
vt 0.495052 0.724192
vt -0.075279 0.815120
vt 0.637778 0.815120
vt 0.681403 1.325271
vt -0.118902 1.325271
vt -0.337266 0.787626
vt -0.337265 -0.287627
vt 0.683713 0.250000
vt -0.117689 1.118230
vt 0.250000 0.800975
vt 0.617688 1.118229
vt -0.326305 0.787155
vt -0.326306 -0.287157
vt 0.688785 -0.287625
vt 0.688783 0.787627
vt -0.584609 0.849786
vt -0.584609 -0.349787
vt 0.599307 -0.287156
vt 0.599307 0.787157
vt 0.012548 0.273387
vt 0.582854 -0.167273
vt 0.595390 0.655578
vt -0.106528 0.815120
vt 0.606529 0.815121
vt 0.650153 1.325271
vt -0.150153 1.325272
vt -0.221095 0.891865
vt -0.430866 -0.162727
vt 0.675380 0.165386
vt -0.148938 1.118229
vt 0.218750 0.800975
vt 0.586438 1.118229
vt -0.210437 0.889267
vt -0.420026 -0.164404
vt 0.575467 -0.362898
vt 0.785239 0.691694
vt -0.451560 1.001088
vt -0.685585 -0.175436
vt 0.487801 -0.344980
vt 0.697388 0.708690
vt 0.021673 0.319262
vt 0.495052 -0.224192
vt 0.667879 0.580404
vt -0.137779 0.815120
vt 0.575279 0.815121
vt 0.618902 1.325271
vt -0.181402 1.325272
vt -0.086822 0.971438
vt -0.498305 -0.021966
vt 0.650699 0.084025
vt -0.180189 1.118230
vt 0.187500 0.800975
vt 0.555188 1.118229
vt -0.076876 0.966810
vt -0.487996 -0.025727
vt 0.449642 -0.414615
vt 0.861124 0.578788
vt -0.291550 1.123521
vt -0.750607 0.015261
vt 0.367156 -0.379942
vt 0.778279 0.612593
vt 0.039573 0.362476
vt 0.014852 0.296774
vt 0.397833 -0.262888
vt 0.724309 0.492530
vt -0.169029 0.815120
vt 0.544029 0.815122
vt 0.587653 1.325273
vt -0.212652 1.325272
vt 0.060396 1.023288
vt -0.536983 0.129246
vt 0.610620 0.009042
vt -0.211438 1.118230
vt 0.156250 0.800975
vt 0.523939 1.118230
vt 0.069249 1.016808
vt -0.527609 0.123549
vt 0.316147 -0.440794
vt 0.913525 0.453249
vt -0.110728 1.212389
vt -0.777176 0.214982
vt 0.242009 -0.390693
vt 0.838868 0.502568
vt 0.065559 0.401367
vt 0.028495 0.341750
vt 0.294934 -0.281873
vt 0.762510 0.395338
vt -0.200279 0.815118
vt 0.512779 0.815120
vt 0.556403 1.325271
vt -0.243903 1.325271
vt 0.214900 1.045415
vt -0.545419 0.285096
vt 0.556682 -0.056682
vt -0.242688 1.118231
vt 0.125000 0.800975
vt 0.492688 1.118232
vt 0.222318 1.037333
vt -0.537337 0.277678
vt 0.180107 -0.440428
vt 0.940425 0.319889
vt 0.083955 1.264272
vt -0.764271 0.416045
vt 0.117169 -0.376826
vt 0.876824 0.382830
vt 0.098633 0.434441
vt 0.050651 0.383201
vt 0.190307 -0.280421
vt 0.781016 0.292559
vt -0.231529 0.815121
vt 0.481529 0.815121
vt 0.525152 1.325271
vt -0.275153 1.325273
vt 0.370753 1.036986
vt -0.523286 0.439607
vt 0.490958 -0.110620
vt -0.273938 1.118229
vt 0.093750 0.800975
vt 0.461439 1.118230
vt 0.376452 1.027609
vt -0.516807 0.430752
vt 0.046756 -0.413521
vt 0.940796 0.183857
vt 0.285020 1.277177
vt -0.712388 0.610731
vt -0.002565 -0.338862
vt 0.890693 0.257993
vt 0.137524 0.460427
vt 0.080467 0.419533
vt 0.087974 -0.258582
vt 0.779115 0.188145
vt -0.262779 0.815120
vt 0.450279 0.815120
vt 0.493903 1.325271
vt -0.306403 1.325271
vt 0.521964 0.998300
vt -0.471439 0.586819
vt 0.415975 -0.150699
vt -0.305188 1.118231
vt 0.062500 0.800975
vt 0.430189 1.118231
vt 0.525726 0.987997
vt -0.466810 0.576873
vt -0.078786 -0.361125
vt 0.914617 0.050356
vt 0.484739 1.250607
vt -0.623522 0.791551
vt -0.112595 -0.278280
vt 0.879942 0.132842
vt 0.180738 0.478327
vt 0.116799 0.449349
vt -0.008132 -0.217202
vt 0.756881 0.086109
vt -0.294028 0.815121
vt 0.419029 0.815122
vt 0.462653 1.325271
vt -0.337652 1.325273
vt 0.662726 0.930867
vt -0.391865 0.721096
vt 0.334613 -0.175380
vt -0.331185 1.118230
vt 0.031250 0.800975
vt 0.398938 1.118228
vt 0.664402 0.920026
vt -0.389267 0.710439
vt -0.191692 -0.285235
vt 0.862899 -0.075462
vt 0.675437 1.185585
vt -0.501085 0.951560
vt -0.208689 -0.197387
vt 0.844982 0.012199
vt 0.226613 0.487452
vt 0.158250 0.471505
vt -0.094318 -0.157865
vt 0.715168 -0.009629
vt -0.325605 0.815120
vt 0.387778 0.815120
vt 0.431403 1.325271
vt -0.347574 1.325271
vt 1.000000 0.800975
vt 0.632062 1.118229
vt 0.604781 1.325272
vt 0.648222 0.815120
vt 0.602820 0.647494
vt 1.330464 0.647494
vt 0.347404 0.647494
vt 0.571569 0.647494
vt 1.303432 0.647493
vt 0.540317 0.647492
vt 1.272181 0.647492
vt 0.509069 0.647495
vt 1.240932 0.647494
vt 0.477820 0.647494
vt 1.209681 0.647492
vt 0.446569 0.647495
vt 1.178432 0.647493
vt 0.415318 0.647494
vt 1.147182 0.647493
vt 0.384068 0.647493
vt 1.115932 0.647494
vt 0.352820 0.647494
vt 1.084682 0.647494
vt 0.321569 0.647494
vt 1.053432 0.647493
vt 0.290318 0.647492
vt 1.022182 0.647492
vt 0.259069 0.647495
vt 0.990930 0.647494
vt 0.227818 0.647494
vt 0.959682 0.647492
vt 0.196569 0.647495
vt 0.928432 0.647493
vt 0.165318 0.647494
vt 0.897181 0.647493
vt 0.134069 0.647493
vt 0.865932 0.647494
vt 0.102819 0.647494
vt 0.834681 0.647494
vt 0.071568 0.647494
vt 0.803432 0.647493
vt 0.040317 0.647492
vt 0.772182 0.647492
vt 0.009068 0.647495
vt 0.740932 0.647494
vt -0.022181 0.647494
vt 0.709680 0.647492
vt -0.053431 0.647495
vt 0.678432 0.647493
vt -0.084682 0.647494
vt 0.647181 0.647493
vt -0.115932 0.647493
vt 0.615931 0.647494
vt -0.147181 0.647494
vt 0.584681 0.647494
vt -0.178432 0.647494
vt 0.553432 0.647493
vt -0.209682 0.647492
vt 0.522182 0.647492
vt -0.240931 0.647495
vt 0.490931 0.647494
vt -0.272182 0.647494
vt 0.459682 0.647492
vt -0.303431 0.647495
vt 0.428432 0.647493
vt -0.330465 0.647494
vt 0.397181 0.647493
vt 1.000000 0.500000
vt 0.968750 0.500000
vt 0.031250 0.500000
vt 0.000000 0.500000
vt 0.652596 0.647493
vt 0.937500 0.500000
vt 0.906250 0.500000
vt 0.875000 0.500000
vt 0.843750 0.500000
vt 0.812500 0.500000
vt 0.781250 0.500000
vt 0.750000 0.500000
vt 0.718750 0.500000
vt 0.687500 0.500000
vt 0.656250 0.500000
vt 0.625000 0.500000
vt 0.593750 0.500000
vt 0.562500 0.500000
vt 0.531250 0.500000
vt 0.500000 0.500000
vt 0.468750 0.500000
vt 0.437500 0.500000
vt 0.406250 0.500000
vt 0.375000 0.500000
vt 0.343750 0.500000
vt 0.312500 0.500000
vt 0.281250 0.500000
vt 0.250000 0.500000
vt 0.218750 0.500000
vt 0.187500 0.500000
vt 0.156250 0.500000
vt 0.125000 0.500000
vt 0.093750 0.500000
vt 0.062500 0.500000
s 0
f 1/1/1 2/2/1 3/3/1 4/4/1 5/5/1 6/6/1 7/7/1 8/8/1 9/9/1 10/10/1 11/11/1 12/12/1 13/13/1 14/14/1 15/15/1 16/16/1 17/17/1 18/18/1 19/19/1 20/20/1 21/21/1 22/22/1 23/23/1 24/24/1 25/25/1 26/26/1 27/27/1 28/28/1 29/29/1 30/30/1 31/31/1 32/32/1
f 33/33/2 34/34/2 35/35/2
f 36/36/3 37/37/3 38/38/3
f 39/39/4 40/40/4 41/41/4 42/42/4
f 43/43/5 44/44/5 45/45/5 46/46/5
f 47/47/6 48/48/6 49/49/6 50/50/6
f 51/51/7 52/52/7 53/53/7 54/54/7
f 55/55/8 56/56/8 57/57/8
f 58/58/9 59/59/9 60/60/9
f 61/61/10 62/62/10 63/63/10 64/64/10
f 65/65/11 66/66/11 67/67/11 68/68/11
f 69/69/12 70/70/12 71/71/12 72/72/12
f 73/73/13 74/74/13 75/75/13 76/76/13
f 77/77/14 78/78/14 79/79/14
f 80/80/15 81/81/15 82/82/15
f 83/83/16 84/84/16 85/85/16 86/86/16
f 87/87/17 88/88/17 89/89/17 90/90/17
f 91/91/18 92/92/18 93/93/18 94/94/18
f 95/95/19 96/96/19 97/97/19 98/98/19
f 99/99/20 100/100/20 101/101/20
f 102/102/21 103/103/21 104/104/21
f 105/105/22 106/106/22 107/107/22 108/108/22
f 109/109/23 110/110/23 111/111/23 112/112/23
f 113/113/24 114/114/24 115/115/24 116/116/24
f 117/117/25 118/118/25 119/119/25 120/120/25
f 121/121/26 122/122/26 123/123/26
f 124/124/27 125/125/27 126/126/27
f 127/127/28 128/128/28 129/129/28 130/130/28
f 131/131/29 132/132/29 133/133/29 134/134/29
f 135/135/30 136/136/30 137/137/30 138/138/30
f 139/139/31 140/140/31 141/141/31 142/142/31
f 143/143/32 144/144/32 145/145/32
f 146/146/33 147/147/33 148/148/33
f 149/149/34 150/150/34 151/151/34 152/152/34
f 153/153/35 154/154/35 155/155/35 156/156/35
f 157/157/36 158/158/36 159/159/36 160/160/36
f 161/161/37 162/162/37 163/163/37 164/164/37
f 165/165/38 166/166/38 167/167/38
f 168/168/39 169/169/39 170/170/39
f 171/171/40 172/172/40 173/173/40 174/174/40
f 175/175/41 176/176/41 177/177/41 178/178/41
f 179/179/42 180/180/42 181/181/42 182/182/42
f 183/183/43 184/184/43 185/185/43 186/186/43
f 187/187/44 188/188/44 189/189/44
f 190/190/45 191/191/45 192/192/45
f 193/193/46 194/194/46 195/195/46 196/196/46
f 197/197/47 198/198/47 199/199/47 200/200/47
f 201/201/48 202/202/48 203/203/48 204/204/48
f 205/205/49 206/206/49 207/207/49 208/208/49
f 209/209/50 210/210/50 211/211/50
f 212/212/51 213/213/51 214/214/51
f 215/215/52 216/216/52 217/217/52 218/218/52
f 219/219/53 220/220/53 221/221/53 222/222/53
f 223/223/54 224/201/54 225/224/54 226/225/54
f 227/226/55 228/227/55 229/228/55 230/229/55
f 231/230/56 232/231/56 233/232/56
f 234/233/57 235/234/57 236/235/57
f 237/236/58 238/237/58 239/238/58 240/239/58
f 241/240/59 242/241/59 243/242/59 244/243/59
f 245/244/60 246/245/60 247/246/60 248/247/60
f 249/248/61 250/249/61 251/250/61 252/251/61
f 253/252/62 254/253/62 255/254/62
f 256/255/63 257/256/63 258/257/63
f 259/258/64 260/259/64 261/260/64 262/261/64
f 263/262/65 264/263/65 265/264/65 266/265/65
f 267/266/66 268/267/66 269/268/66 270/269/66
f 271/270/67 272/271/67 273/272/67 274/273/67
f 275/274/68 276/275/68 277/276/68
f 278/277/69 279/278/69 280/279/69
f 281/280/70 282/281/70 283/282/70 284/283/70
f 285/284/71 286/285/71 287/286/71 288/287/71
f 289/288/72 290/289/72 291/290/72 292/291/72
f 293/292/73 294/293/73 295/294/73 296/295/73
f 297/296/74 298/297/74 299/298/74
f 300/299/75 301/300/75 302/301/75
f 303/302/76 304/303/76 305/304/76 306/305/76
f 307/306/77 308/307/77 309/308/77 310/309/77
f 311/310/78 312/311/78 313/312/78 314/313/78
f 315/314/79 316/315/79 317/316/79 318/317/79
f 319/318/80 320/319/80 321/320/80
f 322/321/81 323/322/81 324/323/81
f 325/324/82 326/325/82 327/326/82 328/327/82
f 329/328/83 330/329/83 331/330/83 332/331/83
f 333/332/84 334/333/84 335/334/84 336/335/84
f 337/336/85 338/337/85 339/338/85 340/339/85
f 341/340/86 342/341/86 343/342/86
f 344/343/87 345/344/87 346/345/87
f 347/346/88 348/347/88 349/348/88 350/349/88
f 351/350/89 352/351/89 353/352/89 354/353/89
f 355/354/90 356/355/90 357/356/90 358/357/90
f 359/358/91 360/359/91 361/360/91 362/361/91
f 363/362/92 364/363/92 365/364/92
f 366/365/93 367/366/93 368/367/93
f 369/368/94 370/369/94 371/370/94 372/371/94
f 373/372/95 374/373/95 375/374/95 376/375/95
f 377/376/96 378/377/96 379/378/96 380/379/96
f 381/380/97 382/381/97 383/382/97 384/383/97
f 385/384/98 386/385/98 387/386/98
f 388/387/99 389/388/99 390/389/99
f 391/390/100 392/391/100 393/392/100 394/393/100
f 395/394/101 396/395/101 397/396/101 398/397/101
f 399/398/102 400/399/102 401/400/102 402/401/102
f 403/402/103 404/403/103 405/404/103 406/405/103
f 407/406/104 408/407/104 409/408/104
f 410/409/105 411/410/105 412/411/105
f 413/412/106 414/413/106 415/414/106 416/415/106
f 417/416/107 418/417/107 419/418/107 420/419/107
f 421/420/108 422/421/108 423/422/108 424/423/108
f 425/424/109 426/425/109 427/426/109 428/427/109
f 429/428/110 430/429/110 431/430/110
f 432/431/111 433/432/111 434/433/111
f 435/434/112 436/435/112 437/436/112 438/437/112
f 439/438/113 440/439/113 441/440/113 442/441/113
f 443/442/114 444/443/114 445/444/114 446/445/114
f 447/446/115 448/447/115 449/448/115 450/449/115
f 451/450/116 452/451/116 453/452/116
f 454/453/117 455/454/117 456/455/117
f 457/456/118 458/457/118 459/458/118 460/459/118
f 461/460/119 462/461/119 463/462/119 464/463/119
f 465/464/120 466/465/120 467/466/120 468/467/120
f 469/468/121 470/469/121 471/470/121 472/471/121
f 473/472/122 474/473/122 475/474/122
f 476/475/123 477/476/123 478/477/123
f 479/478/124 480/479/124 481/480/124 482/481/124
f 483/482/125 484/483/125 485/484/125 486/485/125
f 487/486/126 488/487/126 489/488/126 490/489/126
f 491/490/127 492/491/127 493/492/127 494/493/127
f 495/494/128 496/495/128 497/496/128
f 498/497/129 499/498/129 500/499/129
f 501/500/130 502/501/130 503/502/130 504/503/130
f 505/504/131 506/505/131 507/506/131 508/507/131
f 509/508/132 510/509/132 511/510/132 512/511/132
f 513/512/133 514/513/133 515/514/133 516/515/133
f 517/516/134 518/517/134 519/518/134
f 520/519/135 521/520/135 522/521/135
f 523/522/136 524/523/136 525/524/136 526/525/136
f 527/526/137 528/527/137 529/528/137 530/529/137
f 531/530/138 532/531/138 533/532/138 534/533/138
f 535/534/139 536/535/139 537/536/139 538/537/139
f 539/538/140 540/539/140 541/540/140
f 542/541/141 543/542/141 544/543/141
f 545/544/142 546/545/142 547/546/142 548/547/142
f 549/548/143 550/549/143 551/550/143 552/551/143
f 553/552/144 554/553/144 555/554/144 556/555/144
f 557/556/145 558/557/145 559/558/145 560/559/145
f 561/560/146 562/561/146 563/562/146
f 564/563/147 565/564/147 566/565/147
f 567/566/148 568/567/148 569/568/148 570/569/148
f 571/570/149 572/571/149 573/572/149 574/573/149
f 575/574/150 576/530/150 577/575/150 578/576/150
f 579/577/151 580/578/151 581/579/151 582/580/151
f 583/581/152 584/582/152 585/583/152
f 586/584/153 587/585/153 588/586/153
f 589/587/154 590/588/154 591/589/154 592/590/154
f 593/591/155 594/592/155 595/593/155 596/594/155
f 597/595/156 598/552/156 599/596/156 600/597/156
f 601/598/157 602/599/157 603/600/157 604/601/157
f 605/602/158 606/603/158 607/604/158
f 608/605/159 609/606/159 610/607/159
f 611/608/160 612/609/160 613/610/160 614/611/160
f 615/612/161 616/613/161 617/614/161 618/615/161
f 619/616/162 620/617/162 621/618/162 622/619/162
f 623/620/163 624/621/163 625/622/163 626/623/163
f 627/624/164 628/625/164 629/626/164
f 630/627/165 631/628/165 632/629/165
f 633/630/166 634/631/166 635/632/166 636/633/166
f 637/634/167 638/635/167 639/636/167 640/637/167
f 641/638/168 642/639/168 643/640/168 644/641/168
f 645/642/169 646/643/169 647/644/169 648/645/169
f 649/646/170 650/647/170 651/648/170
f 652/649/171 653/650/171 654/651/171
f 655/652/172 656/653/172 657/654/172 658/655/172
f 659/656/173 660/657/173 661/658/173 662/659/173
f 663/660/174 664/661/174 665/662/174 666/663/174
f 667/664/175 668/665/175 669/666/175 670/667/175
f 671/668/176 672/669/176 673/670/176
f 674/671/177 675/672/177 676/673/177
f 677/674/178 678/675/178 679/676/178 680/677/178
f 681/678/179 682/679/179 683/680/179 684/681/179
f 685/682/180 686/683/180 687/684/180 688/685/180
f 689/686/181 690/687/181 691/688/181 692/689/181
f 693/690/182 694/691/182 695/692/182
f 696/693/183 697/694/183 698/695/183
f 699/696/184 700/697/184 701/698/184 702/699/184
f 703/700/185 704/701/185 705/702/185 706/703/185
f 707/704/186 708/705/186 709/706/186 710/707/186
f 711/708/187 712/709/187 713/710/187 714/711/187
f 715/712/188 716/713/188 717/714/188
f 718/715/189 719/716/189 720/717/189
f 721/718/190 722/719/190 723/720/190 724/721/190
f 725/722/191 726/723/191 727/724/191 728/725/191
f 729/726/192 730/727/192 731/728/192 732/729/192
f 733/730/193 734/731/193 735/732/193 736/733/193
f 73/73/194 58/58/194 60/60/194 74/74/194
f 59/59/195 36/734/195 38/735/195 60/60/195
f 37/37/196 51/51/196 54/54/196 38/38/196
f 53/736/197 75/75/197 74/74/197 54/737/197
f 69/738/198 76/76/198 75/75/198 70/739/198
f 52/52/199 47/740/199 50/38/199 53/53/199
f 49/49/200 71/71/200 70/70/200 50/50/200
f 65/65/201 72/72/201 71/71/201 66/66/201
f 48/48/202 43/43/202 46/46/202 49/49/202
f 45/45/203 67/67/203 66/66/203 46/46/203
f 61/61/204 68/68/204 67/67/204 62/62/204
f 44/44/205 39/39/205 42/42/205 45/45/205
f 41/41/206 63/63/206 62/62/206 42/42/206
f 55/55/207 64/64/207 63/63/207 56/56/207
f 40/40/208 33/33/208 35/35/208 41/41/208
f 34/34/209 57/57/209 56/56/209 35/35/209
f 95/95/210 80/80/210 82/82/210 96/96/210
f 81/81/211 59/59/211 58/58/211 82/82/211
f 76/76/212 97/97/212 96/96/212 73/73/212
f 91/741/213 98/98/213 97/97/213 92/742/213
f 72/72/214 93/93/214 92/92/214 69/69/214
f 87/87/215 94/94/215 93/93/215 88/88/215
f 68/68/216 89/89/216 88/88/216 65/65/216
f 83/83/217 90/90/217 89/89/217 84/84/217
f 64/64/218 85/85/218 84/84/218 61/61/218
f 77/77/219 86/86/219 85/85/219 78/78/219
f 57/57/220 79/79/220 78/78/220 55/55/220
f 117/117/221 102/102/221 104/104/221 118/118/221
f 103/103/222 81/81/222 80/80/222 104/104/222
f 98/98/223 119/119/223 118/118/223 95/95/223
f 113/743/224 120/120/224 119/119/224 114/744/224
f 94/94/225 115/115/225 114/114/225 91/91/225
f 109/109/226 116/116/226 115/115/226 110/110/226
f 90/90/227 111/111/227 110/110/227 87/87/227
f 105/105/228 112/112/228 111/111/228 106/106/228
f 86/86/229 107/107/229 106/106/229 83/83/229
f 99/99/230 108/108/230 107/107/230 100/100/230
f 79/79/231 101/101/231 100/100/231 77/77/231
f 139/139/232 124/124/232 126/126/232 140/140/232
f 125/125/233 103/103/233 102/102/233 126/126/233
f 120/120/234 141/141/234 140/140/234 117/117/234
f 135/745/235 142/142/235 141/141/235 136/746/235
f 116/116/236 137/137/236 136/136/236 113/113/236
f 131/131/237 138/138/237 137/137/237 132/132/237
f 112/112/238 133/133/238 132/132/238 109/109/238
f 127/127/239 134/134/239 133/133/239 128/128/239
f 108/108/240 129/129/240 128/128/240 105/105/240
f 121/121/241 130/130/241 129/129/241 122/122/241
f 101/101/242 123/123/242 122/122/242 99/99/242
f 161/161/243 146/146/243 148/148/243 162/162/243
f 147/147/244 125/125/244 124/124/244 148/148/244
f 142/142/245 163/163/245 162/162/245 139/139/245
f 157/747/246 164/164/246 163/163/246 158/748/246
f 138/138/247 159/159/247 158/158/247 135/135/247
f 153/153/248 160/160/248 159/159/248 154/154/248
f 134/134/249 155/155/249 154/154/249 131/131/249
f 149/149/250 156/156/250 155/155/250 150/150/250
f 130/130/251 151/151/251 150/150/251 127/127/251
f 143/143/252 152/152/252 151/151/252 144/144/252
f 123/123/253 145/145/253 144/144/253 121/121/253
f 183/183/254 168/168/254 170/170/254 184/184/254
f 169/169/255 147/147/255 146/146/255 170/170/255
f 164/164/256 185/185/256 184/184/256 161/161/256
f 179/749/257 186/186/257 185/185/257 180/750/257
f 160/160/258 181/181/258 180/180/258 157/157/258
f 175/175/259 182/182/259 181/181/259 176/176/259
f 156/156/260 177/177/260 176/176/260 153/153/260
f 171/171/261 178/178/261 177/177/261 172/172/261
f 152/152/262 173/173/262 172/172/262 149/149/262
f 165/165/263 174/174/263 173/173/263 166/166/263
f 145/145/264 167/167/264 166/166/264 143/143/264
f 205/205/265 190/190/265 192/192/265 206/206/265
f 191/191/266 169/169/266 168/168/266 192/192/266
f 186/186/267 207/207/267 206/206/267 183/183/267
f 201/751/268 208/208/268 207/207/268 202/752/268
f 182/182/269 203/203/269 202/202/269 179/179/269
f 197/197/270 204/204/270 203/203/270 198/198/270
f 178/178/271 199/199/271 198/198/271 175/175/271
f 193/193/272 200/200/272 199/199/272 194/194/272
f 174/174/273 195/195/273 194/194/273 171/171/273
f 187/187/274 196/196/274 195/195/274 188/188/274
f 167/167/275 189/189/275 188/188/275 165/165/275
f 227/226/276 212/212/276 214/214/276 228/227/276
f 213/213/277 191/191/277 190/190/277 214/214/277
f 208/208/278 229/228/278 228/227/278 205/205/278
f 223/753/279 230/229/279 229/228/279 224/754/279
f 204/204/280 225/224/280 224/201/280 201/201/280
f 219/219/281 226/225/281 225/224/281 220/220/281
f 200/200/282 221/221/282 220/220/282 197/197/282
f 215/215/283 222/222/283 221/221/283 216/216/283
f 196/196/284 217/217/284 216/216/284 193/193/284
f 209/209/285 218/218/285 217/217/285 210/210/285
f 189/189/286 211/211/286 210/210/286 187/187/286
f 249/248/287 234/233/287 236/235/287 250/249/287
f 235/234/288 213/213/288 212/212/288 236/235/288
f 230/229/289 251/250/289 250/249/289 227/226/289
f 245/755/290 252/251/290 251/250/290 246/756/290
f 226/225/291 247/246/291 246/245/291 223/223/291
f 241/240/292 248/247/292 247/246/292 242/241/292
f 222/222/293 243/242/293 242/241/293 219/219/293
f 237/236/294 244/243/294 243/242/294 238/237/294
f 218/218/295 239/238/295 238/237/295 215/215/295
f 231/230/296 240/239/296 239/238/296 232/231/296
f 211/211/297 233/232/297 232/231/297 209/209/297
f 271/270/298 256/255/298 258/257/298 272/271/298
f 257/256/299 235/234/299 234/233/299 258/257/299
f 252/251/300 273/272/300 272/271/300 249/248/300
f 267/757/301 274/273/301 273/272/301 268/758/301
f 248/247/302 269/268/302 268/267/302 245/244/302
f 263/262/303 270/269/303 269/268/303 264/263/303
f 244/243/304 265/264/304 264/263/304 241/240/304
f 259/258/305 266/265/305 265/264/305 260/259/305
f 240/239/306 261/260/306 260/259/306 237/236/306
f 253/252/307 262/261/307 261/260/307 254/253/307
f 233/232/308 255/254/308 254/253/308 231/230/308
f 293/292/309 278/277/309 280/279/309 294/293/309
f 279/278/310 257/256/310 256/255/310 280/279/310
f 274/273/311 295/294/311 294/293/311 271/270/311
f 289/759/312 296/295/312 295/294/312 290/760/312
f 270/269/313 291/290/313 290/289/313 267/266/313
f 285/284/314 292/291/314 291/290/314 286/285/314
f 266/265/315 287/286/315 286/285/315 263/262/315
f 281/280/316 288/287/316 287/286/316 282/281/316
f 262/261/317 283/282/317 282/281/317 259/258/317
f 275/274/318 284/283/318 283/282/318 276/275/318
f 255/254/319 277/276/319 276/275/319 253/252/319
f 315/314/320 300/299/320 302/301/320 316/315/320
f 301/300/321 279/278/321 278/277/321 302/301/321
f 296/295/322 317/316/322 316/315/322 293/292/322
f 311/761/323 318/317/323 317/316/323 312/762/323
f 292/291/324 313/312/324 312/311/324 289/288/324
f 307/306/325 314/313/325 313/312/325 308/307/325
f 288/287/326 309/308/326 308/307/326 285/284/326
f 303/302/327 310/309/327 309/308/327 304/303/327
f 284/283/328 305/304/328 304/303/328 281/280/328
f 297/296/329 306/305/329 305/304/329 298/297/329
f 277/276/330 299/298/330 298/297/330 275/274/330
f 337/336/331 322/321/331 324/323/331 338/337/331
f 323/322/332 301/300/332 300/299/332 324/323/332
f 318/317/333 339/338/333 338/337/333 315/314/333
f 333/763/334 340/339/334 339/338/334 334/764/334
f 314/313/335 335/334/335 334/333/335 311/310/335
f 329/328/336 336/335/336 335/334/336 330/329/336
f 310/309/337 331/330/337 330/329/337 307/306/337
f 325/324/338 332/331/338 331/330/338 326/325/338
f 306/305/339 327/326/339 326/325/339 303/302/339
f 319/318/340 328/327/340 327/326/340 320/319/340
f 299/298/341 321/320/341 320/319/341 297/296/341
f 359/358/342 344/343/342 346/345/342 360/359/342
f 345/344/343 323/322/343 322/321/343 346/345/343
f 340/339/344 361/360/344 360/359/344 337/336/344
f 355/765/345 362/361/345 361/360/345 356/766/345
f 336/335/346 357/356/346 356/355/346 333/332/346
f 351/350/347 358/357/347 357/356/347 352/351/347
f 332/331/348 353/352/348 352/351/348 329/328/348
f 347/346/349 354/353/349 353/352/349 348/347/349
f 328/327/350 349/348/350 348/347/350 325/324/350
f 341/340/351 350/349/351 349/348/351 342/341/351
f 321/320/352 343/342/352 342/341/352 319/318/352
f 381/380/353 366/365/353 368/367/353 382/381/353
f 367/366/354 345/344/354 344/343/354 368/367/354
f 362/361/355 383/382/355 382/381/355 359/358/355
f 377/767/356 384/383/356 383/382/356 378/768/356
f 358/357/357 379/378/357 378/377/357 355/354/357
f 373/372/358 380/379/358 379/378/358 374/373/358
f 354/353/359 375/374/359 374/373/359 351/350/359
f 369/368/360 376/375/360 375/374/360 370/369/360
f 350/349/361 371/370/361 370/369/361 347/346/361
f 363/362/362 372/371/362 371/370/362 364/363/362
f 343/342/363 365/364/363 364/363/363 341/340/363
f 403/402/364 388/387/364 390/389/364 404/403/364
f 389/388/365 367/366/365 366/365/365 390/389/365
f 384/383/366 405/404/366 404/403/366 381/380/366
f 399/769/367 406/405/367 405/404/367 400/770/367
f 380/379/368 401/400/368 400/399/368 377/376/368
f 395/394/369 402/401/369 401/400/369 396/395/369
f 376/375/370 397/396/370 396/395/370 373/372/370
f 391/390/371 398/397/371 397/396/371 392/391/371
f 372/371/372 393/392/372 392/391/372 369/368/372
f 385/384/373 394/393/373 393/392/373 386/385/373
f 365/364/374 387/386/374 386/385/374 363/362/374
f 425/424/375 410/409/375 412/411/375 426/425/375
f 411/410/376 389/388/376 388/387/376 412/411/376
f 406/405/377 427/426/377 426/425/377 403/402/377
f 421/771/378 428/427/378 427/426/378 422/772/378
f 402/401/379 423/422/379 422/421/379 399/398/379
f 417/416/380 424/423/380 423/422/380 418/417/380
f 398/397/381 419/418/381 418/417/381 395/394/381
f 413/412/382 420/419/382 419/418/382 414/413/382
f 394/393/383 415/414/383 414/413/383 391/390/383
f 407/406/384 416/415/384 415/414/384 408/407/384
f 387/386/385 409/408/385 408/407/385 385/384/385
f 447/446/386 432/431/386 434/433/386 448/447/386
f 433/432/387 411/410/387 410/409/387 434/433/387
f 428/427/388 449/448/388 448/447/388 425/424/388
f 443/773/389 450/449/389 449/448/389 444/774/389
f 424/423/390 445/444/390 444/443/390 421/420/390
f 439/438/391 446/445/391 445/444/391 440/439/391
f 420/419/392 441/440/392 440/439/392 417/416/392
f 435/434/393 442/441/393 441/440/393 436/435/393
f 416/415/394 437/436/394 436/435/394 413/412/394
f 429/428/395 438/437/395 437/436/395 430/429/395
f 409/408/396 431/430/396 430/429/396 407/406/396
f 469/468/397 454/453/397 456/455/397 470/469/397
f 455/454/398 433/432/398 432/431/398 456/455/398
f 450/449/399 471/470/399 470/469/399 447/446/399
f 465/775/400 472/471/400 471/470/400 466/776/400
f 446/445/401 467/466/401 466/465/401 443/442/401
f 461/460/402 468/467/402 467/466/402 462/461/402
f 442/441/403 463/462/403 462/461/403 439/438/403
f 457/456/404 464/463/404 463/462/404 458/457/404
f 438/437/405 459/458/405 458/457/405 435/434/405
f 451/450/406 460/459/406 459/458/406 452/451/406
f 431/430/407 453/452/407 452/451/407 429/428/407
f 491/490/408 476/475/408 478/477/408 492/491/408
f 477/476/409 455/454/409 454/453/409 478/477/409
f 472/471/410 493/492/410 492/491/410 469/468/410
f 487/777/411 494/493/411 493/492/411 488/778/411
f 468/467/412 489/488/412 488/487/412 465/464/412
f 483/482/413 490/489/413 489/488/413 484/483/413
f 464/463/414 485/484/414 484/483/414 461/460/414
f 479/478/415 486/485/415 485/484/415 480/479/415
f 460/459/416 481/480/416 480/479/416 457/456/416
f 473/472/417 482/481/417 481/480/417 474/473/417
f 453/452/418 475/474/418 474/473/418 451/450/418
f 513/512/419 498/497/419 500/499/419 514/513/419
f 499/498/420 477/476/420 476/475/420 500/499/420
f 494/493/421 515/514/421 514/513/421 491/490/421
f 509/779/422 516/515/422 515/514/422 510/780/422
f 490/489/423 511/510/423 510/509/423 487/486/423
f 505/504/424 512/511/424 511/510/424 506/505/424
f 486/485/425 507/506/425 506/505/425 483/482/425
f 501/500/426 508/507/426 507/506/426 502/501/426
f 482/481/427 503/502/427 502/501/427 479/478/427
f 495/494/428 504/503/428 503/502/428 496/495/428
f 475/474/429 497/496/429 496/495/429 473/472/429
f 535/534/430 520/519/430 522/521/430 536/535/430
f 521/520/431 499/498/431 498/497/431 522/521/431
f 516/515/432 537/536/432 536/535/432 513/512/432
f 531/781/433 538/537/433 537/536/433 532/782/433
f 512/511/434 533/532/434 532/531/434 509/508/434
f 527/526/435 534/533/435 533/532/435 528/527/435
f 508/507/436 529/528/436 528/527/436 505/504/436
f 523/522/437 530/529/437 529/528/437 524/523/437
f 504/503/438 525/524/438 524/523/438 501/500/438
f 517/516/439 526/525/439 525/524/439 518/517/439
f 497/496/440 519/518/440 518/517/440 495/494/440
f 557/556/441 542/541/441 544/543/441 558/557/441
f 543/542/442 521/520/442 520/519/442 544/543/442
f 538/537/443 559/558/443 558/557/443 535/534/443
f 553/783/444 560/559/444 559/558/444 554/784/444
f 534/533/445 555/554/445 554/553/445 531/530/445
f 549/548/446 556/555/446 555/554/446 550/549/446
f 530/529/447 551/550/447 550/549/447 527/526/447
f 545/544/448 552/551/448 551/550/448 546/545/448
f 526/525/449 547/546/449 546/545/449 523/522/449
f 539/538/450 548/547/450 547/546/450 540/539/450
f 519/518/451 541/540/451 540/539/451 517/516/451
f 579/577/452 564/563/452 566/565/452 580/578/452
f 565/564/453 543/542/453 542/541/453 566/565/453
f 560/559/454 581/579/454 580/578/454 557/556/454
f 575/785/455 582/580/455 581/579/455 576/786/455
f 556/555/456 577/575/456 576/530/456 553/552/456
f 571/570/457 578/576/457 577/575/457 572/571/457
f 552/551/458 573/572/458 572/571/458 549/548/458
f 567/566/459 574/573/459 573/572/459 568/567/459
f 548/547/460 569/568/460 568/567/460 545/544/460
f 561/560/461 570/569/461 569/568/461 562/561/461
f 541/540/462 563/562/462 562/561/462 539/538/462
f 601/598/463 586/584/463 588/586/463 602/599/463
f 587/585/464 565/564/464 564/563/464 588/586/464
f 582/580/465 603/600/465 602/599/465 579/577/465
f 597/787/466 604/601/466 603/600/466 598/788/466
f 578/576/467 599/596/467 598/552/467 575/574/467
f 593/591/468 600/597/468 599/596/468 594/592/468
f 574/573/469 595/593/469 594/592/469 571/570/469
f 589/587/470 596/594/470 595/593/470 590/588/470
f 570/569/471 591/589/471 590/588/471 567/566/471
f 583/581/472 592/590/472 591/589/472 584/582/472
f 563/562/473 585/583/473 584/582/473 561/560/473
f 623/620/474 608/605/474 610/607/474 624/621/474
f 609/606/475 587/585/475 586/584/475 610/607/475
f 604/601/476 625/622/476 624/621/476 601/598/476
f 619/789/477 626/623/477 625/622/477 620/790/477
f 600/597/478 621/618/478 620/617/478 597/595/478
f 615/612/479 622/619/479 621/618/479 616/613/479
f 596/594/480 617/614/480 616/613/480 593/591/480
f 611/608/481 618/615/481 617/614/481 612/609/481
f 592/590/482 613/610/482 612/609/482 589/587/482
f 605/602/483 614/611/483 613/610/483 606/603/483
f 585/583/484 607/604/484 606/603/484 583/581/484
f 645/642/485 630/627/485 632/629/485 646/643/485
f 631/628/486 609/606/486 608/605/486 632/629/486
f 626/623/487 647/644/487 646/643/487 623/620/487
f 641/791/488 648/645/488 647/644/488 642/792/488
f 622/619/489 643/640/489 642/639/489 619/616/489
f 637/634/490 644/641/490 643/640/490 638/635/490
f 618/615/491 639/636/491 638/635/491 615/612/491
f 633/630/492 640/637/492 639/636/492 634/631/492
f 614/611/493 635/632/493 634/631/493 611/608/493
f 627/624/494 636/633/494 635/632/494 628/625/494
f 607/604/495 629/626/495 628/625/495 605/602/495
f 667/664/496 652/649/496 654/651/496 668/665/496
f 653/650/497 631/628/497 630/627/497 654/651/497
f 648/645/498 669/666/498 668/665/498 645/642/498
f 663/793/499 670/667/499 669/666/499 664/794/499
f 644/641/500 665/662/500 664/661/500 641/638/500
f 659/656/501 666/663/501 665/662/501 660/657/501
f 640/637/502 661/658/502 660/657/502 637/634/502
f 655/652/503 662/659/503 661/658/503 656/653/503
f 636/633/504 657/654/504 656/653/504 633/630/504
f 649/646/505 658/655/505 657/654/505 650/647/505
f 629/626/506 651/648/506 650/647/506 627/624/506
f 689/686/507 674/671/507 676/673/507 690/687/507
f 675/672/508 653/650/508 652/649/508 676/673/508
f 670/667/509 691/688/509 690/687/509 667/664/509
f 685/795/510 692/689/510 691/688/510 686/796/510
f 666/663/511 687/684/511 686/683/511 663/660/511
f 681/678/512 688/685/512 687/684/512 682/679/512
f 662/659/513 683/680/513 682/679/513 659/656/513
f 677/674/514 684/681/514 683/680/514 678/675/514
f 658/655/515 679/676/515 678/675/515 655/652/515
f 671/668/516 680/677/516 679/676/516 672/669/516
f 651/648/517 673/670/517 672/669/517 649/646/517
f 711/708/518 696/693/518 698/695/518 712/709/518
f 697/694/519 675/672/519 674/671/519 698/695/519
f 692/689/520 713/710/520 712/709/520 689/686/520
f 707/797/521 714/711/521 713/710/521 708/798/521
f 688/685/522 709/706/522 708/705/522 685/682/522
f 703/700/523 710/707/523 709/706/523 704/701/523
f 684/681/524 705/702/524 704/701/524 681/678/524
f 699/696/525 706/703/525 705/702/525 700/697/525
f 680/677/526 701/698/526 700/697/526 677/674/526
f 693/690/527 702/699/527 701/698/527 694/691/527
f 673/670/528 695/692/528 694/691/528 671/668/528
f 733/730/529 718/715/529 720/717/529 734/731/529
f 719/716/530 697/694/530 696/693/530 720/717/530
f 714/711/531 735/732/531 734/731/531 711/708/531
f 729/799/532 736/733/532 735/732/532 730/800/532
f 710/707/533 731/728/533 730/727/533 707/704/533
f 725/722/534 732/729/534 731/728/534 726/723/534
f 706/703/535 727/724/535 726/723/535 703/700/535
f 721/718/536 728/725/536 727/724/536 722/719/536
f 702/699/537 723/720/537 722/719/537 699/696/537
f 715/712/538 724/721/538 723/720/538 716/713/538
f 695/692/539 717/714/539 716/713/539 693/690/539
f 36/36/540 719/716/540 718/715/540 37/37/540
f 736/733/541 52/52/541 51/51/541 733/730/541
f 732/729/542 48/48/542 47/47/542 729/726/542
f 728/725/543 44/44/543 43/43/543 725/722/543
f 724/721/544 40/40/544 39/39/544 721/718/544
f 717/714/545 34/34/545 33/33/545 715/712/545
f 40/40/546 724/721/546 715/712/546 33/33/546
f 63/63/547 41/41/547 35/35/547 56/56/547
f 57/57/548 34/34/548 717/714/548 695/692/548 673/670/548 651/648/548 629/626/548 607/604/548 585/583/548 563/562/548 541/540/548 519/518/548 497/496/548 475/474/548 453/452/548 431/430/548 409/408/548 387/386/548 365/364/548 343/342/548 321/320/548 299/298/548 277/276/548 255/254/548 233/232/548 211/211/548 189/189/548 167/167/548 145/145/548 123/123/548 101/101/548 79/79/548
f 1/801/549 36/734/549 59/59/549 2/802/549
f 60/60/550 38/735/550 54/737/550 74/74/550
f 37/37/551 718/715/551 733/730/551 51/51/551
f 32/803/552 719/716/552 36/36/552 1/804/552
f 44/44/553 728/725/553 721/718/553 39/39/553
f 67/67/554 45/45/554 42/42/554 62/62/554
f 48/48/555 732/729/555 725/722/555 43/43/555
f 71/71/556 49/49/556 46/46/556 66/66/556
f 52/52/557 736/733/557 729/799/557 47/740/557
f 75/75/558 53/736/558 50/805/558 70/739/558
f 85/85/559 64/64/559 55/55/559 78/78/559
f 82/82/560 58/58/560 73/73/560 96/96/560
f 2/802/561 59/59/561 81/81/561 3/806/561
f 89/89/562 68/68/562 61/61/562 84/84/562
f 93/93/563 72/72/563 65/65/563 88/88/563
f 97/97/564 76/76/564 69/738/564 92/742/564
f 107/107/565 86/86/565 77/77/565 100/100/565
f 104/104/566 80/80/566 95/95/566 118/118/566
f 3/806/567 81/81/567 103/103/567 4/807/567
f 111/111/568 90/90/568 83/83/568 106/106/568
f 115/115/569 94/94/569 87/87/569 110/110/569
f 119/119/570 98/98/570 91/741/570 114/744/570
f 129/129/571 108/108/571 99/99/571 122/122/571
f 126/126/572 102/102/572 117/117/572 140/140/572
f 4/807/573 103/103/573 125/125/573 5/808/573
f 133/133/574 112/112/574 105/105/574 128/128/574
f 137/137/575 116/116/575 109/109/575 132/132/575
f 141/141/576 120/120/576 113/743/576 136/746/576
f 151/151/577 130/130/577 121/121/577 144/144/577
f 148/148/578 124/124/578 139/139/578 162/162/578
f 5/808/579 125/125/579 147/147/579 6/809/579
f 155/155/580 134/134/580 127/127/580 150/150/580
f 159/159/581 138/138/581 131/131/581 154/154/581
f 163/163/582 142/142/582 135/745/582 158/748/582
f 173/173/583 152/152/583 143/143/583 166/166/583
f 170/170/584 146/146/584 161/161/584 184/184/584
f 6/809/585 147/147/585 169/169/585 7/810/585
f 177/177/586 156/156/586 149/149/586 172/172/586
f 181/181/587 160/160/587 153/153/587 176/176/587
f 185/185/588 164/164/588 157/747/588 180/750/588
f 195/195/589 174/174/589 165/165/589 188/188/589
f 192/192/590 168/168/590 183/183/590 206/206/590
f 7/810/591 169/169/591 191/191/591 8/811/591
f 199/199/592 178/178/592 171/171/592 194/194/592
f 203/203/593 182/182/593 175/175/593 198/198/593
f 207/207/594 186/186/594 179/749/594 202/752/594
f 217/217/595 196/196/595 187/187/595 210/210/595
f 214/214/596 190/190/596 205/205/596 228/227/596
f 8/811/597 191/191/597 213/213/597 9/812/597
f 221/221/598 200/200/598 193/193/598 216/216/598
f 225/224/599 204/204/599 197/197/599 220/220/599
f 229/228/600 208/208/600 201/751/600 224/754/600
f 239/238/601 218/218/601 209/209/601 232/231/601
f 236/235/602 212/212/602 227/226/602 250/249/602
f 9/812/603 213/213/603 235/234/603 10/813/603
f 243/242/604 222/222/604 215/215/604 238/237/604
f 247/246/605 226/225/605 219/219/605 242/241/605
f 251/250/606 230/229/606 223/753/606 246/756/606
f 261/260/607 240/239/607 231/230/607 254/253/607
f 258/257/608 234/233/608 249/248/608 272/271/608
f 10/813/609 235/234/609 257/256/609 11/814/609
f 265/264/610 244/243/610 237/236/610 260/259/610
f 269/268/611 248/247/611 241/240/611 264/263/611
f 273/272/612 252/251/612 245/755/612 268/758/612
f 283/282/613 262/261/613 253/252/613 276/275/613
f 280/279/614 256/255/614 271/270/614 294/293/614
f 11/814/615 257/256/615 279/278/615 12/815/615
f 287/286/616 266/265/616 259/258/616 282/281/616
f 291/290/617 270/269/617 263/262/617 286/285/617
f 295/294/618 274/273/618 267/757/618 290/760/618
f 305/304/619 284/283/619 275/274/619 298/297/619
f 302/301/620 278/277/620 293/292/620 316/315/620
f 12/815/621 279/278/621 301/300/621 13/816/621
f 309/308/622 288/287/622 281/280/622 304/303/622
f 313/312/623 292/291/623 285/284/623 308/307/623
f 317/316/624 296/295/624 289/759/624 312/762/624
f 327/326/625 306/305/625 297/296/625 320/319/625
f 324/323/626 300/299/626 315/314/626 338/337/626
f 13/816/627 301/300/627 323/322/627 14/817/627
f 331/330/628 310/309/628 303/302/628 326/325/628
f 335/334/629 314/313/629 307/306/629 330/329/629
f 339/338/630 318/317/630 311/761/630 334/764/630
f 349/348/631 328/327/631 319/318/631 342/341/631
f 346/345/632 322/321/632 337/336/632 360/359/632
f 14/817/633 323/322/633 345/344/633 15/818/633
f 353/352/634 332/331/634 325/324/634 348/347/634
f 357/356/635 336/335/635 329/328/635 352/351/635
f 361/360/636 340/339/636 333/763/636 356/766/636
f 371/370/637 350/349/637 341/340/637 364/363/637
f 368/367/638 344/343/638 359/358/638 382/381/638
f 15/818/639 345/344/639 367/366/639 16/819/639
f 375/374/640 354/353/640 347/346/640 370/369/640
f 379/378/641 358/357/641 351/350/641 374/373/641
f 383/382/642 362/361/642 355/765/642 378/768/642
f 393/392/643 372/371/643 363/362/643 386/385/643
f 390/389/644 366/365/644 381/380/644 404/403/644
f 16/819/645 367/366/645 389/388/645 17/820/645
f 397/396/646 376/375/646 369/368/646 392/391/646
f 401/400/647 380/379/647 373/372/647 396/395/647
f 405/404/648 384/383/648 377/767/648 400/770/648
f 415/414/649 394/393/649 385/384/649 408/407/649
f 412/411/650 388/387/650 403/402/650 426/425/650
f 17/820/651 389/388/651 411/410/651 18/821/651
f 419/418/652 398/397/652 391/390/652 414/413/652
f 423/422/653 402/401/653 395/394/653 418/417/653
f 427/426/654 406/405/654 399/769/654 422/772/654
f 437/436/655 416/415/655 407/406/655 430/429/655
f 434/433/656 410/409/656 425/424/656 448/447/656
f 18/821/657 411/410/657 433/432/657 19/822/657
f 441/440/658 420/419/658 413/412/658 436/435/658
f 445/444/659 424/423/659 417/416/659 440/439/659
f 449/448/660 428/427/660 421/771/660 444/774/660
f 459/458/661 438/437/661 429/428/661 452/451/661
f 456/455/662 432/431/662 447/446/662 470/469/662
f 19/822/663 433/432/663 455/454/663 20/823/663
f 463/462/664 442/441/664 435/434/664 458/457/664
f 467/466/665 446/445/665 439/438/665 462/461/665
f 471/470/666 450/449/666 443/773/666 466/776/666
f 481/480/667 460/459/667 451/450/667 474/473/667
f 478/477/668 454/453/668 469/468/668 492/491/668
f 20/823/669 455/454/669 477/476/669 21/824/669
f 485/484/670 464/463/670 457/456/670 480/479/670
f 489/488/671 468/467/671 461/460/671 484/483/671
f 493/492/672 472/471/672 465/775/672 488/778/672
f 503/502/673 482/481/673 473/472/673 496/495/673
f 500/499/674 476/475/674 491/490/674 514/513/674
f 21/824/675 477/476/675 499/498/675 22/825/675
f 507/506/676 486/485/676 479/478/676 502/501/676
f 511/510/677 490/489/677 483/482/677 506/505/677
f 515/514/678 494/493/678 487/777/678 510/780/678
f 525/524/679 504/503/679 495/494/679 518/517/679
f 522/521/680 498/497/680 513/512/680 536/535/680
f 22/825/681 499/498/681 521/520/681 23/826/681
f 529/528/682 508/507/682 501/500/682 524/523/682
f 533/532/683 512/511/683 505/504/683 528/527/683
f 537/536/684 516/515/684 509/779/684 532/782/684
f 547/546/685 526/525/685 517/516/685 540/539/685
f 544/543/686 520/519/686 535/534/686 558/557/686
f 23/826/687 521/520/687 543/542/687 24/827/687
f 551/550/688 530/529/688 523/522/688 546/545/688
f 555/554/689 534/533/689 527/526/689 550/549/689
f 559/558/690 538/537/690 531/781/690 554/784/690
f 569/568/691 548/547/691 539/538/691 562/561/691
f 566/565/692 542/541/692 557/556/692 580/578/692
f 24/827/693 543/542/693 565/564/693 25/828/693
f 573/572/694 552/551/694 545/544/694 568/567/694
f 577/575/695 556/555/695 549/548/695 572/571/695
f 581/579/696 560/559/696 553/783/696 576/786/696
f 591/589/697 570/569/697 561/560/697 584/582/697
f 588/586/698 564/563/698 579/577/698 602/599/698
f 25/828/699 565/564/699 587/585/699 26/829/699
f 595/593/700 574/573/700 567/566/700 590/588/700
f 599/596/701 578/576/701 571/570/701 594/592/701
f 603/600/702 582/580/702 575/785/702 598/788/702
f 613/610/703 592/590/703 583/581/703 606/603/703
f 610/607/704 586/584/704 601/598/704 624/621/704
f 26/829/705 587/585/705 609/606/705 27/830/705
f 617/614/706 596/594/706 589/587/706 612/609/706
f 621/618/707 600/597/707 593/591/707 616/613/707
f 625/622/708 604/601/708 597/787/708 620/790/708
f 635/632/709 614/611/709 605/602/709 628/625/709
f 632/629/710 608/605/710 623/620/710 646/643/710
f 27/830/711 609/606/711 631/628/711 28/831/711
f 639/636/712 618/615/712 611/608/712 634/631/712
f 643/640/713 622/619/713 615/612/713 638/635/713
f 647/644/714 626/623/714 619/789/714 642/792/714
f 657/654/715 636/633/715 627/624/715 650/647/715
f 654/651/716 630/627/716 645/642/716 668/665/716
f 28/831/717 631/628/717 653/650/717 29/832/717
f 661/658/718 640/637/718 633/630/718 656/653/718
f 665/662/719 644/641/719 637/634/719 660/657/719
f 669/666/720 648/645/720 641/791/720 664/794/720
f 679/676/721 658/655/721 649/646/721 672/669/721
f 676/673/722 652/649/722 667/664/722 690/687/722
f 29/832/723 653/650/723 675/672/723 30/833/723
f 683/680/724 662/659/724 655/652/724 678/675/724
f 687/684/725 666/663/725 659/656/725 682/679/725
f 691/688/726 670/667/726 663/793/726 686/796/726
f 701/698/727 680/677/727 671/668/727 694/691/727
f 698/695/728 674/671/728 689/686/728 712/709/728
f 30/833/729 675/672/729 697/694/729 31/834/729
f 705/702/730 684/681/730 677/674/730 700/697/730
f 709/706/731 688/685/731 681/678/731 704/701/731
f 713/710/732 692/689/732 685/795/732 708/798/732
f 723/720/733 702/699/733 693/690/733 716/713/733
f 720/717/734 696/693/734 711/708/734 734/731/734
f 31/834/735 697/694/735 719/716/735 32/803/735
f 727/724/736 706/703/736 699/696/736 722/719/736
f 731/728/737 710/707/737 703/700/737 726/723/737
f 735/732/738 714/711/738 707/797/738 730/800/738
